<svg width="210" height="52" viewBox="0 0 210 52" fill="none" xmlns="http://www.w3.org/2000/svg">
<path d="M20.3461 1.58348C21.0033 1.18755 21.6603 0.791632 22.3175 0.527588C22.5803 1.18755 22.9745 1.84738 23.2375 2.50734C21.7918 3.29919 20.3461 3.95916 19.0318 4.88302C15.352 7.12668 11.935 9.76626 9.04367 13.0657C6.80947 15.7054 4.96954 18.8728 4.57528 22.4363C4.44385 24.548 4.83812 26.7916 6.15235 28.5073C7.33516 29.9592 9.1751 31.0149 11.015 31.2789C13.1178 31.6749 15.352 31.411 17.3234 30.883C21.3975 29.8271 25.0773 27.8474 28.6258 25.7357C30.7286 24.416 32.8313 23.0962 34.5398 21.2484C35.197 20.4566 35.7227 19.5327 35.7227 18.4768C35.7227 17.685 35.197 16.8931 34.5398 16.6291C33.8827 16.2332 32.9628 16.1013 32.1742 16.2332C31.1228 16.4972 30.0714 17.0252 29.0201 17.553C25.9972 19.1368 23.3688 21.2484 20.3461 22.8323C18.5061 23.7561 16.5349 24.68 14.432 24.68C13.1178 24.68 11.8036 24.1521 11.015 23.0962C10.3579 22.3043 10.0951 21.3805 10.2265 20.3246C10.3579 18.7409 11.015 17.157 11.935 15.9693C13.6435 13.5936 16.0091 11.8779 18.5061 10.4261C22.7117 7.65448 27.3115 5.41082 32.1742 4.09103C34.8027 3.43121 37.4312 3.03529 40.0596 3.16717C43.8708 3.29919 47.6822 4.4871 50.8363 6.73075C54.5162 9.37033 57.276 13.5936 57.5389 18.2129C57.9332 22.0403 56.7504 25.8678 55.0418 29.2992C53.7276 31.9388 51.8876 34.3144 49.9164 36.4261C48.3392 38.1419 46.6307 39.7256 44.9223 41.1774C42.6881 43.157 40.1911 44.8728 37.6939 46.4566C35.197 48.0403 32.437 49.3601 29.6771 50.548C28.8886 50.9439 27.9686 51.3398 27.1801 51.6037C26.6544 49.2282 25.8659 46.8525 25.3402 44.4768C27.5744 43.4211 29.8086 42.4972 32.0428 41.3093C34.5398 39.9895 36.9054 38.2738 39.1396 36.5581C41.111 34.9744 42.9508 33.3906 44.6595 31.5428C47.5507 28.5073 49.9164 24.548 50.4421 20.3246C50.5734 18.7409 50.5734 17.2891 50.1792 15.7054C49.2592 12.5379 47.025 9.76625 44.0023 8.18242C41.5053 6.86263 38.6139 6.33469 35.854 6.59873C31.7799 6.86263 27.9686 8.44646 24.4202 10.2942C22.7117 11.2181 21.1346 12.1418 19.5576 13.1977C17.9804 14.1215 16.5349 15.1774 15.352 16.6291C14.8262 17.2891 14.432 18.0809 14.432 18.8728C14.432 19.4007 14.8262 20.0607 15.352 20.1927C16.2719 20.5886 17.3234 20.1927 18.2433 19.7966C22.5803 17.685 26.2602 14.3854 30.86 12.8018C33.0942 12.0099 35.7227 11.8779 37.9569 12.8018C39.7968 13.5936 41.2424 15.3093 41.6366 17.2891C41.7681 18.4768 41.7681 19.6647 41.3738 20.7205C40.7166 22.4363 39.6654 23.888 38.3511 25.2078C36.774 26.7916 34.934 28.1114 33.0942 29.2992C30.4656 30.751 27.9686 32.4667 25.2087 33.6546C22.8431 34.7104 20.2146 35.6342 17.7176 36.2942C14.8262 37.086 11.8036 37.2181 8.91225 36.5581C6.02092 35.8983 3.6553 34.3144 2.34108 32.0708C1.15826 30.2231 0.632568 27.9794 0.632568 25.8678C0.763992 23.3601 1.28969 20.8525 2.34108 18.6089C4.18099 14.7815 6.9409 11.3499 10.2265 8.57834C13.3806 5.80689 16.7976 3.43121 20.4775 1.45145L20.3461 1.58348Z" fill="#70BF4E"/>
<path d="M50.5735 19.7974C50.5735 19.0056 50.5735 18.2137 50.5735 17.4219C50.705 18.2137 50.705 19.0056 50.5735 19.7974ZM70.8127 19.4015C72.3899 18.4776 74.2297 18.4776 75.9383 18.8735C76.8583 19.0056 77.6468 19.6655 78.3038 20.3254C77.7783 20.8533 77.2525 21.3812 76.5954 21.9092C75.5441 20.4574 73.3099 20.1933 71.8642 21.1172C70.9442 21.7772 70.6813 23.229 71.3385 24.1528C71.9955 24.9447 73.0469 25.2086 74.0984 25.6045C75.2811 25.8686 76.5954 26.2645 77.5153 27.3204C78.4353 28.2441 78.5668 29.5639 78.4353 30.7518C78.3038 32.0716 77.5153 33.2593 76.3326 33.9193C75.1497 34.5791 73.8354 34.8432 72.5212 34.7112C70.9442 34.5791 69.3671 33.9193 68.4471 32.5995C68.9728 32.0716 69.63 31.5436 70.1557 31.1477C71.3385 32.8634 73.9669 33.3914 75.5441 32.0716C76.4639 31.4116 76.7268 29.9599 75.9383 29.0361C75.1497 28.2441 73.9669 27.9802 72.9155 27.7163C71.7327 27.3202 70.55 26.7924 69.7613 25.7365C69.1043 24.9447 68.9728 23.7568 68.9728 22.701C69.1043 21.3812 69.8928 20.3254 70.9442 19.6655L70.8127 19.4015ZM136.919 19.4015C138.627 18.4776 140.73 18.3457 142.57 18.7417C144.015 19.0056 145.33 19.5335 146.249 20.5894C145.724 21.1172 145.33 21.6451 144.804 22.1731C142.701 20.1933 139.021 19.9294 136.919 22.0411C134.685 24.0208 134.422 27.7163 135.999 30.0918C136.919 31.4116 138.233 32.3355 139.81 32.5995C141.387 32.7314 142.964 32.5995 144.41 31.9396C144.41 30.4877 144.41 29.168 144.41 27.7163C143.359 27.7163 142.176 27.7163 141.124 27.7163C141.124 27.0563 141.124 26.3965 141.124 25.7365C142.964 25.7365 144.673 25.7365 146.512 25.7365C146.512 28.1122 146.512 30.6198 146.512 32.9954C146.512 33.2593 146.249 33.3914 145.987 33.5234C144.015 34.4473 141.913 34.7112 139.81 34.5791C137.576 34.4473 135.473 33.2593 134.29 31.4116C132.976 29.5639 132.582 27.1883 132.976 25.0766C133.37 22.701 134.816 20.5894 137.05 19.5335L136.919 19.4015ZM89.4748 18.8735C92.7605 18.8735 95.9146 18.8735 99.2003 18.8735C99.2003 19.5335 99.2003 20.1933 99.2003 20.8533C96.5717 20.8533 94.0747 20.8533 91.4462 20.8533C91.4462 22.3051 91.4462 23.8888 91.4462 25.3406C93.8119 25.3406 96.1774 25.3406 98.5431 25.3406C98.5431 26.0004 98.5431 26.6604 98.5431 27.3204C96.1774 27.3204 93.8119 27.3204 91.4462 27.3204C91.4462 28.9041 91.3148 30.4877 91.4462 32.0716C91.972 32.2036 92.629 32.0716 93.1547 32.0716C95.2575 32.0716 97.3603 32.0716 99.4631 32.0716C99.4631 32.7314 99.4631 33.3914 99.4631 34.0512C96.0461 34.0512 92.7605 34.0512 89.3435 34.0512C89.3435 29.0361 89.3435 23.8888 89.3435 18.8735H89.4748ZM115.365 18.8735C116.022 18.8735 116.679 18.8735 117.205 18.8735C119.308 23.8888 121.542 28.9041 123.645 34.0512C122.856 34.0512 122.068 34.1832 121.279 34.0512C120.754 32.8634 120.228 31.5436 119.702 30.3559C117.337 30.3559 114.971 30.3559 112.605 30.3559C112.08 31.5436 111.686 32.8634 111.16 34.0512C110.371 34.0512 109.583 34.0512 108.794 34.0512C110.897 29.0361 113.263 23.8888 115.365 18.8735ZM163.072 18.8735C163.73 18.8735 164.387 18.8735 164.912 18.8735C167.015 23.8888 169.249 28.9041 171.351 34.0512C170.563 34.0512 169.775 34.1832 168.987 34.0512C168.329 32.8634 167.935 31.5436 167.409 30.3559C165.043 30.3559 162.678 30.3559 160.312 30.3559C159.787 31.5436 159.391 32.8634 158.866 34.0512C158.078 34.1832 157.29 34.0512 156.5 34.0512C158.736 29.0361 160.969 23.8888 163.203 18.8735H163.072ZM177.66 18.8735C181.603 18.8735 185.545 18.8735 189.488 18.8735C189.488 19.5335 189.488 20.1933 189.488 20.8533C187.911 20.8533 186.202 20.8533 184.626 20.8533C184.626 25.2086 184.626 29.6959 184.626 34.0512C183.969 34.0512 183.311 34.0512 182.523 34.0512C182.523 29.6959 182.523 25.2086 182.523 20.8533C180.945 20.8533 179.236 20.8533 177.66 20.8533C177.66 20.1933 177.66 19.5335 177.66 18.8735ZM199.739 18.8735C203.025 18.8735 206.178 18.8735 209.465 18.8735C209.465 19.5335 209.465 20.1933 209.465 20.8533C206.968 20.8533 204.339 20.8533 201.842 20.8533C201.842 22.3051 201.842 23.8888 201.842 25.3406C204.208 25.3406 206.574 25.3406 209.071 25.3406C209.071 26.0004 209.071 26.6604 209.071 27.3204C206.705 27.3204 204.339 27.3204 201.842 27.3204C201.842 28.9041 201.842 30.4877 201.842 32.0716C204.471 32.0716 207.23 32.0716 209.859 32.0716C209.859 32.7314 209.859 33.3914 209.859 34.0512C206.442 34.0512 203.156 34.0512 199.739 34.0512C199.739 29.0361 199.739 23.8888 199.739 18.8735Z" fill="#979E96"/>
<path d="M113.394 28.5076C114.314 26.264 115.234 23.8884 116.285 21.6448C117.205 23.8884 118.125 26.264 119.045 28.5076C117.205 28.5076 115.234 28.5076 113.394 28.5076ZM161.1 28.5076C162.021 26.264 162.94 23.8884 163.991 21.6448C164.912 23.8884 165.832 26.264 166.751 28.5076C164.912 28.5076 162.94 28.5076 161.1 28.5076Z" fill="white"/>
</svg>