<svg width="216" height="46" viewBox="0 0 216 46" fill="none" xmlns="http://www.w3.org/2000/svg">
<g clip-path="url(#clip0)">
<path d="M76.2438 26.4946L74.9564 30.1318H74.8491C74.6345 29.3117 74.2412 28.0636 73.5974 26.5659L66.6955 9.27136H59.9365V36.8357H64.4067V19.8264C64.4067 18.7566 64.4067 17.5442 64.371 16.0466C64.3352 15.2977 64.2637 14.7272 64.2279 14.2993H64.3352C64.5498 15.369 64.8001 16.1535 64.9789 16.6528L73.2756 36.7644H76.4226L84.6478 16.4745C84.8266 16.0109 85.0054 15.0838 85.1842 14.2993H85.2915C85.1842 16.3318 85.1127 18.1504 85.0769 19.2559V36.7287H89.8332V9.20004H83.3246L76.2438 26.4946V26.4946ZM94.3392 16.9737H98.9882V36.7287H94.3392V16.9737ZM96.6994 8.6295C95.9127 8.6295 95.269 8.91477 94.7325 9.41399C94.1961 9.91322 93.91 10.5551 93.91 11.3396C93.91 12.0884 94.1961 12.7303 94.7325 13.2295C95.269 13.7287 95.9127 13.9783 96.6994 13.9783C97.4862 13.9783 98.1657 13.6931 98.6663 13.2295C99.2027 12.7303 99.4888 12.0884 99.4888 11.3396C99.4888 10.5907 99.2027 9.94888 98.6663 9.41399C98.2014 8.91477 97.5219 8.6295 96.6994 8.6295V8.6295ZM115.474 16.7954C114.616 16.6171 113.722 16.5101 112.864 16.5101C110.754 16.5101 108.823 16.9737 107.213 17.9008C105.604 18.8279 104.317 20.1117 103.494 21.7163C102.636 23.3566 102.207 25.2466 102.207 27.4217C102.207 29.3117 102.636 30.9876 103.458 32.521C104.281 34.0186 105.425 35.231 106.963 36.0512C108.429 36.8714 110.146 37.2993 112.077 37.2993C114.294 37.2993 116.189 36.8357 117.691 35.9799L117.727 35.9442V31.6652L117.548 31.8078C116.869 32.307 116.082 32.7349 115.295 32.9845C114.473 33.2698 113.722 33.4124 113.078 33.4124C111.219 33.4124 109.752 32.8776 108.715 31.7008C107.642 30.5597 107.106 28.9907 107.106 27.0295C107.106 24.9969 107.642 23.3923 108.751 22.2155C109.86 21.0388 111.326 20.4326 113.114 20.4326C114.616 20.4326 116.154 20.9318 117.548 21.9303L117.727 22.0729V17.5442L117.691 17.5086C117.084 17.259 116.404 16.9737 115.474 16.7954V16.7954ZM130.816 16.6528C129.672 16.6528 128.599 17.0093 127.669 17.7582C126.882 18.4 126.346 19.3272 125.881 20.4326H125.845V16.9737H121.196V36.7287H125.845V26.6372C125.845 24.9256 126.203 23.4993 126.989 22.4652C127.776 21.3954 128.778 20.8605 129.993 20.8605C130.423 20.8605 130.852 20.9675 131.388 21.0388C131.889 21.1814 132.246 21.3241 132.497 21.5024L132.676 21.645V17.0093L132.568 16.9737C132.246 16.7597 131.603 16.6528 130.816 16.6528V16.6528ZM143.476 16.5458C140.221 16.5458 137.611 17.5086 135.787 19.3985C133.927 21.2884 133.033 23.8915 133.033 27.1721C133.033 30.2388 133.963 32.7349 135.751 34.5535C137.539 36.3365 139.971 37.2636 143.011 37.2636C146.193 37.2636 148.733 36.3008 150.556 34.3752C152.416 32.4497 153.31 29.8822 153.31 26.7086C153.31 23.5706 152.452 21.0745 150.699 19.2559C149.019 17.4372 146.551 16.5458 143.476 16.5458V16.5458ZM147.195 31.7365C146.337 32.8419 144.978 33.3768 143.297 33.3768C141.616 33.3768 140.257 32.8419 139.291 31.6652C138.326 30.5597 137.861 28.9551 137.861 26.9225C137.861 24.8186 138.362 23.214 139.291 22.0729C140.257 20.9318 141.58 20.3613 143.261 20.3613C144.906 20.3613 146.193 20.8962 147.123 22.0016C148.053 23.107 148.554 24.7117 148.554 26.8155C148.482 28.9551 148.089 30.631 147.195 31.7365V31.7365ZM163.681 25.1752C162.215 24.569 161.285 24.1055 160.856 23.7132C160.498 23.3566 160.319 22.8574 160.319 22.2155C160.319 21.6807 160.534 21.1458 161.07 20.7892C161.607 20.4326 162.215 20.2543 163.109 20.2543C163.895 20.2543 164.718 20.3969 165.505 20.6109C166.291 20.8248 167.007 21.1458 167.579 21.5737L167.758 21.7163V17.3659L167.65 17.3303C167.114 17.1163 166.399 16.9024 165.54 16.7241C164.682 16.5814 163.895 16.5101 163.252 16.5101C161.035 16.5101 159.211 17.045 157.78 18.2217C156.35 19.3272 155.67 20.8248 155.67 22.5721C155.67 23.4993 155.813 24.3194 156.135 24.9969C156.457 25.6745 156.922 26.3163 157.566 26.8512C158.209 27.3504 159.139 27.921 160.427 28.4559C161.499 28.9194 162.322 29.276 162.823 29.5613C163.323 29.8466 163.645 30.1675 163.895 30.4171C164.074 30.7024 164.182 31.059 164.182 31.5225C164.182 32.8419 163.18 33.4838 161.142 33.4838C160.355 33.4838 159.533 33.3411 158.567 33.0202C157.601 32.6993 156.707 32.2357 155.956 31.7008L155.778 31.5582V36.0869L155.885 36.1225C156.564 36.4435 157.387 36.6574 158.388 36.907C159.389 37.0853 160.284 37.2279 161.07 37.2279C163.466 37.2279 165.433 36.6931 166.828 35.5163C168.258 34.3752 169.009 32.9132 169.009 31.0233C169.009 29.7039 168.652 28.5272 167.865 27.6357C166.828 26.7799 165.54 25.8884 163.681 25.1752V25.1752ZM181.276 16.5458C178.021 16.5458 175.411 17.5086 173.587 19.3985C171.763 21.2884 170.833 23.8915 170.833 27.1721C170.833 30.2388 171.763 32.7349 173.551 34.5535C175.339 36.3365 177.771 37.2636 180.811 37.2636C183.993 37.2636 186.533 36.3008 188.356 34.3752C190.216 32.4497 191.11 29.8822 191.11 26.7086C191.11 23.5706 190.252 21.0745 188.499 19.2559C186.819 17.4372 184.351 16.5458 181.276 16.5458V16.5458ZM184.959 31.7365C184.101 32.8419 182.742 33.3768 181.061 33.3768C179.344 33.3768 178.021 32.8419 177.056 31.6652C176.09 30.5597 175.625 28.9551 175.625 26.9225C175.625 24.8186 176.126 23.214 177.056 22.0729C178.021 20.9318 179.344 20.3613 181.025 20.3613C182.635 20.3613 183.958 20.8962 184.887 22.0016C185.817 23.107 186.318 24.7117 186.318 26.8155C186.318 28.9551 185.853 30.631 184.959 31.7365V31.7365ZM215.964 20.7892V16.9737H211.28V11.1256L211.137 11.1613L206.702 12.4807L206.595 12.5163V16.9737H199.585V14.4776C199.585 13.3365 199.872 12.445 200.372 11.8745C200.873 11.3039 201.624 11.0186 202.554 11.0186C203.197 11.0186 203.877 11.1613 204.628 11.4822L204.807 11.5892V7.55973L204.699 7.52407C204.056 7.31012 203.197 7.16748 202.089 7.16748C200.694 7.16748 199.478 7.48841 198.37 8.02329C197.261 8.6295 196.438 9.44965 195.831 10.5551C195.223 11.6248 194.901 12.8372 194.901 14.2279V16.9737H191.646V20.7535H194.901V36.7287H199.585V20.7892H206.595V30.952C206.595 35.1241 208.562 37.2279 212.495 37.2279C213.139 37.2279 213.819 37.121 214.462 37.014C215.142 36.8714 215.642 36.6931 215.929 36.5504L215.964 36.5148V32.6993L215.786 32.8419C215.499 33.0202 215.249 33.1628 214.82 33.2698C214.462 33.3768 214.14 33.4124 213.89 33.4124C212.96 33.4124 212.317 33.1985 211.852 32.6636C211.423 32.1644 211.208 31.3442 211.208 30.1318V20.7892H215.964V20.7892Z" fill="#737373"/>
<path d="M0 0H21.9219V21.8589H0V0Z" fill="#F25022"/>
<path d="M24.2104 0H46.1323V21.8589H24.2104V0Z" fill="#7FBA00"/>
<path d="M0 24.1411H21.9219V46H0V24.1411Z" fill="#00A4EF"/>
<path d="M24.2104 24.1411H46.1323V46H24.2104V24.1411Z" fill="#FFB900"/>
</g>
<defs>
<clipPath id="clip0">
<rect width="216" height="46" fill="white"/>
</clipPath>
</defs>
</svg>