<svg width="202" height="36" viewBox="0 0 202 36" fill="none" xmlns="http://www.w3.org/2000/svg">
<path d="M33.0594 2.55253e-06H3.3891C2.49094 0.0022179 1.6302 0.363182 0.995088 1.00383C0.359986 1.64462 0.00220681 2.5129 0 3.41912V11.4714H8.23247V10.1561C8.23358 9.66558 8.4272 9.19551 8.77101 8.84867C9.11481 8.50183 9.5808 8.30646 10.067 8.30535H26.3941C26.8798 8.30646 27.3454 8.50196 27.6885 8.8488C28.0317 9.19578 28.2244 9.66599 28.2244 10.1561V11.4714H36.461V3.41912C36.4588 2.51083 36.0993 1.64047 35.4615 0.999402C34.8237 0.358335 33.9598 -0.00110512 33.0594 2.55253e-06Z" fill="#ED1944"/>
<path d="M28.2244 25.8439C28.2244 26.3341 28.0317 26.8041 27.6885 27.1511C27.3454 27.4981 26.8798 27.6936 26.3941 27.6947H10.067C9.5808 27.6936 9.11482 27.4982 8.77101 27.1514C8.4272 26.8046 8.23356 26.3345 8.23247 25.8439V24.5286H0V32.5809C0.00220681 33.487 0.359979 34.3554 0.995081 34.9961C1.63018 35.6369 2.49094 35.9978 3.3891 36.0001H33.0594C33.9576 35.9978 34.8183 35.6369 35.4534 34.9961C36.0885 34.3554 36.4463 33.487 36.4485 32.5809V24.5286H28.2244V25.8439Z" fill="#ED1944"/>
<path d="M8.23247 13.8455H0V22.1508H8.23247V13.8455Z" fill="#ED1944"/>
<path d="M36.461 13.8455H28.2285V22.1508H36.461V13.8455Z" fill="#ED1944"/>
<path d="M200.847 24.9794C200.847 24.5162 200.712 24.0632 200.457 23.6779C200.203 23.2924 199.842 22.9918 199.417 22.8141C198.993 22.6366 198.526 22.5898 198.076 22.68C197.626 22.7703 197.213 22.9932 196.888 23.3206C196.563 23.6481 196.343 24.0654 196.253 24.5197C196.163 24.974 196.21 25.4447 196.385 25.8724C196.561 26.3001 196.86 26.6655 197.242 26.9224C197.624 27.1791 198.073 27.3157 198.531 27.3149C199.146 27.3138 199.734 27.0673 200.168 26.6297C200.601 26.1919 200.846 25.5984 200.847 24.9794ZM198.531 26.7415C198.185 26.7424 197.846 26.6394 197.557 26.4457C197.268 26.2518 197.044 25.976 196.911 25.653C196.777 25.3301 196.742 24.9745 196.81 24.6316C196.878 24.2885 197.044 23.9733 197.289 23.726C197.535 23.4788 197.846 23.3104 198.187 23.2424C198.527 23.1744 198.88 23.2097 199.2 23.3439C199.519 23.4782 199.793 23.7053 199.985 23.9963C200.178 24.2875 200.279 24.6296 200.279 24.9794C200.279 25.4467 200.095 25.8949 199.767 26.2254C199.439 26.5559 198.995 26.7415 198.531 26.7415Z" fill="#4E4540"/>
<path d="M199.402 24.554C199.406 24.457 199.391 24.3603 199.358 24.269C199.324 24.1779 199.275 24.0941 199.209 24.0227C199.126 23.946 199.028 23.8871 198.922 23.8495C198.815 23.8118 198.703 23.7962 198.591 23.8035H197.755V26.0928H198.227V25.3424H198.519L198.937 26.0928H199.477L198.996 25.2496C199.126 25.1901 199.236 25.0912 199.308 24.9667C199.381 24.8421 199.413 24.698 199.402 24.554ZM198.924 24.554C198.927 24.6023 198.92 24.6508 198.902 24.6958C198.884 24.7408 198.857 24.7812 198.822 24.8143C198.786 24.8472 198.745 24.872 198.699 24.8868C198.653 24.9016 198.605 24.9059 198.556 24.8997H198.211V24.2082H198.544C198.788 24.2082 198.924 24.3221 198.924 24.5498V24.554Z" fill="#4E4540"/>
<path d="M61.7267 18.1585V17.8424C61.7267 12.3154 58.1327 8.30176 53.2435 8.30176C48.3541 8.30176 44.6934 12.3828 44.6934 17.8761V18.1965C44.6934 23.7235 48.2873 27.7034 53.1765 27.7034C58.0659 27.7034 61.7267 23.6519 61.7267 18.1585ZM48.6383 18.0996V17.8845C48.6383 14.398 50.4185 11.8305 53.1765 11.8305C55.8637 11.8305 57.7734 14.4359 57.7734 17.9225V18.1332C57.7734 21.6198 55.9932 24.2253 53.2351 24.2253C50.5563 24.2168 48.6383 21.5734 48.6383 18.0996Z" fill="#4E4540"/>
<path d="M80.5028 18.2303V17.7369C80.5028 11.4343 77.0134 8.30176 73.311 8.30176C70.6614 8.30176 69.0526 9.84904 67.9034 11.645V8.65178H63.9585V32.6317H67.9034V24.4993C69.0192 26.1519 70.6238 27.6654 73.311 27.6654C77.0468 27.6654 80.5028 24.4993 80.5028 18.2303ZM67.8323 18.1585V17.8087C67.8323 14.145 69.855 11.8221 72.2286 11.8221C74.6022 11.8221 76.5246 14.1114 76.5246 17.8424V18.1585C76.5246 21.8939 74.6399 24.1451 72.2286 24.1451C69.8173 24.1451 67.8323 21.8222 67.8323 18.1585Z" fill="#4E4540"/>
<path d="M97.5902 24.8154L95.5342 22.3492C94.3098 23.5464 93.0268 24.3222 91.2759 24.3222C88.8646 24.3222 86.9465 22.6358 86.5954 19.4992H98.1836C98.2212 18.9343 98.2212 18.3694 98.2212 18.1249C98.2212 12.5262 95.5676 8.30176 90.5404 8.30176C86.002 8.30176 82.6548 12.3153 82.6548 17.914V18.1965C82.6548 24.0397 86.3531 27.7034 91.1003 27.7034C92.3245 27.7218 93.538 27.4734 94.6582 26.9749C95.7783 26.4765 96.7785 25.7399 97.5902 24.8154ZM90.5404 11.645C92.8429 11.645 94.1718 13.7951 94.3807 16.7504H86.5621C86.8253 13.5801 88.3757 11.645 90.5404 11.645Z" fill="#4E4540"/>
<path d="M109.809 8.30176C107.302 8.30176 105.797 9.74368 104.749 11.4005V8.65178H100.804V27.3154H104.749V16.0127C104.749 13.441 106.178 11.8938 108.238 11.8938C110.298 11.8938 111.556 13.3356 111.556 15.941V27.3239H115.497V14.8153C115.488 10.8356 113.361 8.30176 109.809 8.30176Z" fill="#4E4540"/>
<path d="M131.389 21.9983V21.9603C131.389 19.0387 129.224 17.7023 126.374 16.3997C124.21 15.4131 122.747 14.7765 122.747 13.5454V13.4611C122.747 12.4408 123.616 11.6314 125.083 11.6314C126.55 11.6314 128.083 12.3355 129.479 13.2883L131.151 10.3624C129.4 9.09149 127.306 8.3913 125.15 8.35571C121.694 8.35571 119.04 10.4636 119.04 13.8153V13.8827C119.04 16.9435 121.343 18.2124 124.101 19.4098C126.299 20.3583 127.732 20.9569 127.732 22.2976V22.3314C127.732 23.495 126.788 24.376 125.15 24.376C123.512 24.376 121.727 23.5624 120.052 22.1922L118.205 25.0421C120.129 26.6858 122.558 27.6064 125.079 27.6475C128.614 27.6644 131.389 25.6577 131.389 21.9983Z" fill="#4E4540"/>
<path d="M143.6 26.7874V23.5118C142.945 23.8623 142.215 24.0434 141.473 24.0387C140.22 24.0387 139.484 23.44 139.484 21.9983V12.0656H143.658V8.65077H139.48V3.61694H135.535V8.65077H133.508L134.16 12.0656H135.535V22.8077C135.535 26.4334 137.595 27.5969 140.315 27.5969C141.461 27.6132 142.591 27.3346 143.6 26.7874Z" fill="#4E4540"/>
<path d="M158.703 10.3417C157.516 9.11068 155.665 8.44039 153.27 8.44039C151.145 8.42835 149.049 8.93608 147.161 9.92011L148.277 13.0904C149.664 12.3851 151.19 11.9992 152.744 11.9606C155.251 11.9606 156.722 13.2634 156.722 15.7549V16.5306C155.355 16.039 153.915 15.7894 152.465 15.7929C148.556 15.7929 145.902 17.7616 145.902 21.7751V21.9522C145.902 25.5821 148.485 27.6563 151.557 27.6563C152.566 27.6975 153.566 27.4764 154.465 27.0142C155.365 26.552 156.13 25.8643 156.689 25.0172V27.3065H160.563V15.7296C160.563 13.4067 159.957 11.5728 158.703 10.3417ZM156.759 21.05C156.759 23.1579 155.013 24.7137 152.744 24.6757C151.035 24.6419 149.743 23.5838 149.743 21.7246V21.6529C149.743 19.6798 151.069 18.5205 153.338 18.5205C154.511 18.5147 155.673 18.7409 156.759 19.1866V21.05Z" fill="#4E4540"/>
<path d="M177.329 24.8822L175.201 22.243C174.119 23.3349 173.037 24.1443 171.44 24.1443C168.749 24.1443 166.844 21.716 166.844 18.0903V17.9134C166.844 14.3889 168.728 11.893 171.314 11.893C172.987 11.893 174.069 12.7363 175.047 13.7564L177.244 10.8348C176.491 10.0117 175.573 9.36007 174.55 8.92392C173.528 8.48764 172.425 8.27676 171.314 8.30529C166.463 8.30529 162.865 12.3188 162.865 17.8796V18.2338C162.865 23.7988 166.358 27.7069 171.173 27.7069C172.344 27.737 173.506 27.4984 174.572 27.0091C175.639 26.5198 176.581 25.7926 177.329 24.8822Z" fill="#4E4540"/>
<path d="M189.401 17.6265L186.63 20.6281L190.345 27.3145H194.917L189.401 17.6265Z" fill="#4E4540"/>
<path d="M190.065 8.65029L183.747 16.8544V1.88794H179.806V27.3139H183.747V21.9261L194.742 8.65029H190.065Z" fill="#4E4540"/>
</svg>