<svg width="110" height="58" viewBox="0 0 110 58" fill="none" xmlns="http://www.w3.org/2000/svg">
<path d="M35.9345 38.5317H31.1113V57.6275H35.9345V38.5317Z" fill="#C4122E"/>
<path d="M24.4803 44.0036C24.2863 43.9028 22.7356 42.984 20.4287 42.984C17.3044 42.984 15.1426 45.1529 15.1426 48.0773C15.1426 50.9147 17.2142 53.1752 20.4287 53.1752C22.6959 53.1752 24.2726 52.2762 24.4803 52.1617V57.2871C23.8814 57.4565 22.236 57.9663 20.0819 57.9663C14.6598 57.9663 9.90381 54.2299 9.90381 48.0773C9.90381 42.375 14.2121 38.1929 20.0819 38.1929C22.3521 38.1929 24.0266 38.7439 24.4803 38.8782V44.0036Z" fill="#C4122E"/>
<path d="M75.5765 44.0036C75.3825 43.9028 73.8318 42.984 71.5249 42.984C68.4006 42.984 66.2388 45.1529 66.2388 48.0773C66.2388 50.9147 68.3104 53.1752 71.5249 53.1752C73.7921 53.1752 75.3688 52.2762 75.5765 52.1617V57.2871C74.9776 57.4565 73.3322 57.9663 71.1781 57.9663C65.756 57.9663 61 54.2299 61 48.0773C61 42.375 65.3083 38.1929 71.1781 38.1929C73.4483 38.1929 75.1228 38.7439 75.5765 38.8782V44.0036Z" fill="#C4122E"/>
<path d="M89.9988 43.0555C87.1373 43.0555 85.0121 45.3053 85.0121 48.0771C85.0121 50.8549 87.1373 53.1032 89.9988 53.1032C92.8573 53.1032 94.9885 50.8549 94.9885 48.0771C94.9885 45.3053 92.8573 43.0555 89.9988 43.0555V43.0555ZM100.099 48.0771C100.099 53.5397 95.8777 57.966 89.9988 57.966C84.1199 57.966 79.9048 53.5397 79.9048 48.0771C79.9048 42.6235 84.1199 38.1926 89.9988 38.1926C95.8777 38.1926 100.099 42.6235 100.099 48.0771Z" fill="#C4122E"/>
<path d="M54.2258 42.8723C54.154 42.8494 52.1236 42.2892 50.4553 42.2892C48.5226 42.2892 47.4715 42.9364 47.4715 43.8537C47.4715 45.0167 48.8893 45.4227 49.6822 45.673L51.0129 46.0958C54.1433 47.091 55.5703 49.2324 55.5703 51.5585C55.5703 56.3557 51.3475 57.9675 47.6564 57.9675C45.0912 57.9675 42.688 57.4959 42.4512 57.4455V53.0513C42.876 53.1581 44.8987 53.761 47.0055 53.761C49.4057 53.761 50.5087 53.0604 50.5087 51.9783C50.5087 51.0106 49.5539 50.4519 48.3576 50.0765C48.0658 49.9788 47.6273 49.8414 47.3279 49.7437C44.6421 48.8951 42.4023 47.3184 42.4023 44.1574C42.4023 40.5858 45.079 38.188 49.5248 38.188C51.873 38.188 54.0822 38.7573 54.2258 38.7955V42.8723Z" fill="#C4122E"/>
<path d="M4.78958 18.0098C4.78958 16.6941 3.71403 15.6272 2.39556 15.6272C1.07708 15.6272 0 16.6941 0 18.0098V23.0222C0 24.3455 1.07708 25.4139 2.39556 25.4139C3.71403 25.4139 4.78958 24.3455 4.78958 23.0222V18.0098Z" fill="#15495D"/>
<path d="M17.9429 11.4308C17.9429 10.1151 16.8673 9.04517 15.5489 9.04517C14.2289 9.04517 13.1533 10.1151 13.1533 11.4308V23.0232C13.1533 24.3465 14.2289 25.4134 15.5489 25.4134C16.8673 25.4134 17.9429 24.3465 17.9429 23.0232V11.4308Z" fill="#15495D"/>
<path d="M31.0957 2.42927C31.0957 1.11359 30.0202 0.045166 28.7017 0.045166C27.3817 0.045166 26.3062 1.11359 26.3062 2.42927V27.786C26.3062 29.1093 27.3817 30.1777 28.7017 30.1777C30.0202 30.1777 31.0957 29.1093 31.0957 27.786V2.42927Z" fill="#15495D"/>
<path d="M44.2491 11.4308C44.2491 10.1151 43.1735 9.04517 41.855 9.04517C40.535 9.04517 39.4595 10.1151 39.4595 11.4308V23.0232C39.4595 24.3465 40.535 25.4134 41.855 25.4134C43.1735 25.4134 44.2491 24.3465 44.2491 23.0232V11.4308Z" fill="#15495D"/>
<path d="M57.3876 18.0098C57.3876 16.6941 56.3197 15.6272 55.0073 15.6272C53.6888 15.6272 52.6133 16.6941 52.6133 18.0098V23.0222C52.6133 24.3455 53.6888 25.4139 55.0073 25.4139C56.3197 25.4139 57.3876 24.3455 57.3876 23.0222V18.0098Z" fill="#15495D"/>
<path d="M56.7896 18.0098C56.7896 16.6941 55.714 15.6272 54.3956 15.6272C53.0771 15.6272 52 16.6941 52 18.0098V23.0222C52 24.3455 53.0771 25.4139 54.3956 25.4139C55.714 25.4139 56.7896 24.3455 56.7896 23.0222V18.0098Z" fill="#15495D"/>
<path d="M69.9429 11.4308C69.9429 10.1151 68.8673 9.04517 67.5489 9.04517C66.2289 9.04517 65.1533 10.1151 65.1533 11.4308V23.0232C65.1533 24.3465 66.2289 25.4134 67.5489 25.4134C68.8673 25.4134 69.9429 24.3465 69.9429 23.0232V11.4308Z" fill="#15495D"/>
<path d="M83.0957 2.42927C83.0957 1.11359 82.0202 0.045166 80.7017 0.045166C79.3817 0.045166 78.3062 1.11359 78.3062 2.42927V27.786C78.3062 29.1093 79.3817 30.1777 80.7017 30.1777C82.0202 30.1777 83.0957 29.1093 83.0957 27.786V2.42927Z" fill="#15495D"/>
<path d="M96.2491 11.4308C96.2491 10.1151 95.1735 9.04517 93.855 9.04517C92.535 9.04517 91.4595 10.1151 91.4595 11.4308V23.0232C91.4595 24.3465 92.535 25.4134 93.855 25.4134C95.1735 25.4134 96.2491 24.3465 96.2491 23.0232V11.4308Z" fill="#15495D"/>
<path d="M109.388 18.0098C109.388 16.6941 108.32 15.6272 107.007 15.6272C105.689 15.6272 104.613 16.6941 104.613 18.0098V23.0222C104.613 24.3455 105.689 25.4139 107.007 25.4139C108.32 25.4139 109.388 24.3455 109.388 23.0222V18.0098Z" fill="#15495D"/>
<path d="M107.24 55.1125V55.4117H106.388V57.6264H106.038V55.4117H105.181V55.1125H107.24Z" fill="#C4122E"/>
<path d="M107.419 55.1125H107.967L108.721 57.1746H108.733L109.462 55.1125H109.999V57.6264H109.64V55.5659H109.628L108.864 57.6264H108.533L107.787 55.5659H107.77V57.6264H107.419V55.1125Z" fill="#C4122E"/>
</svg>