<svg width="171" height="46" viewBox="0 0 171 46" fill="none" xmlns="http://www.w3.org/2000/svg">
<path d="M83.8887 36.897H84.924L90.2569 44.218V36.897H91.1718V45.7756H90.3038L84.8038 38.2385V45.7756H83.8887V36.897Z" fill="#61849C"/>
<path d="M93.446 36.897H99.3436V37.7963H94.3963V40.7304H99.2234V41.6181H94.3963V44.9128H99.392V45.7756H93.446V36.897Z" fill="#61849C"/>
<path d="M104.122 37.7968H100.775V36.8975H108.419V37.7968H105.073V45.7776H104.122V37.7968Z" fill="#61849C"/>
<path d="M109.574 36.8972H110.549L112.895 44.2416L115.291 36.8972H116.109L118.492 44.2416L120.851 36.8972H121.766L118.901 45.8357H118.084L115.676 38.4431L113.281 45.8357H112.451L109.574 36.8972Z" fill="#61849C"/>
<path d="M130.648 41.343C130.648 38.946 129.53 37.6525 127.097 37.6525C124.678 37.6525 123.57 38.946 123.57 41.343C123.57 43.7518 124.678 45.0465 127.097 45.0465C129.53 45.0465 130.648 43.7518 130.648 41.343ZM122.62 41.3314C122.62 38.1679 124.245 36.7549 127.097 36.7549C129.962 36.7549 131.599 38.1679 131.599 41.3314C131.599 44.5065 129.962 45.921 127.097 45.921C124.245 45.921 122.62 44.5065 122.62 41.3314Z" fill="#61849C"/>
<path d="M137.401 41.2949C138.665 41.2949 139.446 40.9111 139.446 39.5096C139.446 38.1316 138.688 37.7724 137.365 37.7724H134.464V41.2949H137.401ZM137.137 42.1577H134.464V45.7766H133.537V36.8979H137.389C139.459 36.8979 140.398 37.7243 140.398 39.4863C140.398 41.0191 139.663 41.9184 138.11 42.1213L140.264 45.7766H139.254L137.137 42.1577Z" fill="#61849C"/>
<path d="M145.128 41.0676L143.346 43.0077V45.7769H142.42V36.8982H143.346V41.7988L147.86 36.8982H148.955L145.754 40.3843L149.389 45.7769H148.317L145.128 41.0676Z" fill="#61849C"/>
<path d="M150.183 44.8787L150.664 44.1606C151.734 44.8305 152.783 45.0582 153.853 45.0582C155.695 45.0582 156.513 44.543 156.513 43.3211C156.513 42.0628 155.454 41.8832 153.853 41.5956C151.928 41.2598 150.627 40.9358 150.627 39.1401C150.627 37.4248 151.734 36.7549 153.853 36.7549C155.25 36.7549 156.249 37.0657 156.959 37.5461L156.453 38.3125C155.815 37.8935 154.865 37.6175 153.853 37.6175C152.253 37.6175 151.567 38.0613 151.567 39.1153C151.567 40.2423 152.494 40.4569 154.083 40.7446C156.032 41.0919 157.44 41.3795 157.44 43.2846C157.44 45.0465 156.309 45.8962 153.878 45.8962C152.53 45.8962 151.313 45.6217 150.183 44.8787Z" fill="#61849C"/>
<path d="M166.764 0.200928C154.226 0.200928 153.694 5.79354 153.694 13.6839V33.0543H156.65V13.6839C156.65 7.73655 156.414 2.96734 166.764 2.96734C167.873 2.96734 168.857 3.02566 169.743 3.12932V0.324964C168.829 0.244793 167.844 0.200928 166.764 0.200928Z" fill="#231F20"/>
<path d="M20.5269 20.454V0.847168H23.5431V20.5125C23.5431 26.1649 23.4845 30.9341 33.8924 30.9341C44.2416 30.9341 44.0055 26.1649 44.0055 20.2176V0.847168H46.9631V20.2176C46.9631 28.1079 46.4294 33.702 33.8924 33.702C21.2952 33.702 20.5269 28.1079 20.5269 20.454Z" fill="#231F20"/>
<path d="M78.4016 13.4474V33.0543H75.3853V13.389C75.3853 7.73655 75.444 2.96734 65.0361 2.96734C54.6854 2.96734 54.923 7.73655 54.923 13.6839V33.0543H51.9668V13.6839C51.9668 5.79354 52.4992 0.200928 65.0361 0.200928C77.6332 0.200928 78.4016 5.79354 78.4016 13.4474Z" fill="#231F20"/>
<path d="M83.8901 0.89917H86.7848V33.0461H83.8901V0.89917Z" fill="#231F20"/>
<path d="M107.366 18.9929C112.589 18.9929 115.184 16.4587 115.184 11.339C115.184 6.22236 112.383 3.79176 107.237 3.79176H95.1V18.9929H107.366ZM92.2056 0.907227H107.322C114.818 0.907227 118.216 4.61663 118.216 11.2106C118.216 17.8484 114.862 21.8834 107.281 21.8834H95.1V33.054H92.2056V0.907227Z" fill="#231F20"/>
<path d="M124.544 14.6818H146.543C146.248 8.2643 145.833 2.78849 136.43 2.78849C127.383 2.78849 124.899 7.67599 124.544 14.6818ZM121.586 16.8612C121.586 7.38257 124.308 0.0805664 136.491 0.0805664C149.087 0.0805664 149.501 8.49939 149.442 17.3897H124.485C124.544 25.2217 126.494 31.0507 136.726 31.0507C142.167 31.0507 144.652 29.5777 147.313 27.6362L148.967 29.8143C146.011 31.9922 142.522 33.7003 136.726 33.7003C123.953 33.7003 121.586 26.3398 121.586 16.8612Z" fill="#231F20"/>
<path d="M2.36807 40.0291C14.9051 40.0291 15.4388 34.4364 15.4388 26.5461V0.847412H12.4812V26.5461C12.4812 32.492 12.7173 37.2626 2.36807 37.2626C1.97656 37.2626 1.60559 37.2525 1.24341 37.2378V40.0144C1.60705 40.0231 1.98096 40.0291 2.36807 40.0291Z" fill="#231F20"/>
<path d="M163.124 29.3901C162.142 29.3901 161.346 30.1843 161.346 31.1595C161.346 32.1347 162.142 32.9288 163.124 32.9288C164.101 32.9288 164.899 32.1347 164.899 31.1595C164.899 30.1843 164.101 29.3901 163.124 29.3901ZM163.124 33.1915C161.997 33.1915 161.081 32.2806 161.081 31.1595C161.081 30.0399 161.997 29.1274 163.124 29.1274C164.249 29.1274 165.163 30.0399 165.163 31.1595C165.163 32.2806 164.249 33.1915 163.124 33.1915Z" fill="#231F20"/>
<path d="M163.328 31.1394C163.648 31.1394 163.832 31.0474 163.832 30.7059C163.832 30.3686 163.653 30.2912 163.318 30.2912H162.601V31.1394H163.328ZM163.254 31.4314H162.601V32.3292H162.289V29.9949H163.332C163.927 29.9949 164.155 30.2372 164.155 30.6985C164.155 31.0752 163.994 31.3351 163.59 31.4095L164.119 32.3292H163.78L163.254 31.4314Z" fill="#231F20"/>
</svg>