<svg width="134" height="57" viewBox="0 0 134 57" fill="none" xmlns="http://www.w3.org/2000/svg">
<g clip-path="url(#clip0)">
<path fill-rule="evenodd" clip-rule="evenodd" d="M103.209 26.9348C103.209 26.3301 103.699 25.8843 104.279 25.8843C104.852 25.8843 105.343 26.3301 105.343 26.9348C105.343 27.545 104.852 27.9908 104.279 27.9908C103.699 27.9908 103.209 27.545 103.209 26.9348ZM104.279 27.8155C104.755 27.8155 105.131 27.4422 105.131 26.9348C105.131 26.436 104.755 26.0599 104.279 26.0599C103.797 26.0599 103.421 26.436 103.421 26.9348C103.421 27.4422 103.797 27.8155 104.279 27.8155ZM104.056 27.545H103.872V26.3301H104.334C104.621 26.3301 104.763 26.436 104.763 26.6756C104.763 26.8932 104.627 26.9877 104.449 27.0101L104.794 27.545H104.588L104.268 27.0183H104.056V27.545L104.276 26.8623C104.432 26.8623 104.571 26.8513 104.571 26.6646C104.571 26.514 104.435 26.4862 104.306 26.4862H104.056V26.8623H104.276L104.056 27.545Z" fill="black"/>
<path fill-rule="evenodd" clip-rule="evenodd" d="M23.4068 34.218L18.9173 26.2077H35.1494L26.9986 8.94328L15.0488 34.218H0.750732L19.4702 0.104248H34.5277L53.1087 34.218H23.4068Z" fill="#FF0000"/>
<path fill-rule="evenodd" clip-rule="evenodd" d="M53.1783 14.3994H70.9992C75.4887 14.3994 77.285 14.1227 77.285 10.9462C77.285 7.90811 75.8344 7.56258 71.2065 7.56258H53.1087L49.1025 0.104248H74.2454C86.1262 0.104248 90.5469 5.28364 90.5469 10.8079C90.5469 16.1256 86.4712 21.9953 73.4164 21.9953H67.4764V34.218H53.1087V14.3994H53.1783Z" fill="#FF0000"/>
<path fill-rule="evenodd" clip-rule="evenodd" d="M127.778 32.147C123.495 34.1492 118.176 35.1163 112.512 35.1163C95.382 35.1163 89.5107 25.5869 89.5107 17.7142C89.5107 7.77049 98.2136 0.10498 113.203 0.10498C118.66 0.10498 123.426 0.933684 127.432 2.45274V12.3276C123.288 10.1182 119.696 9.15119 115.482 9.15119C108.299 9.15119 102.427 12.3972 102.427 17.5759C102.427 22.6864 108.437 26.0013 115.621 26.0013C119.765 26.0013 123.149 25.1725 127.778 23.032V32.147Z" fill="#FF0000"/>
<path fill-rule="evenodd" clip-rule="evenodd" d="M129.293 3.05368C129.293 2.15603 130.025 1.49414 130.89 1.49414C131.748 1.49414 132.48 2.15603 132.48 3.05368C132.48 3.95949 131.748 4.62138 130.89 4.62138C130.025 4.62138 129.293 3.95949 129.293 3.05368ZM130.89 4.36112C131.602 4.36112 132.164 3.80691 132.164 3.05368C132.164 2.3132 131.602 1.75491 130.89 1.75491C130.17 1.75491 129.609 2.3132 129.609 3.05368C129.609 3.80691 130.17 4.36112 130.89 4.36112ZM130.557 3.95949H130.283V2.15603H130.974C131.402 2.15603 131.615 2.3132 131.615 2.6689C131.615 2.99193 131.41 3.13227 131.144 3.16544L131.66 3.95949H131.352L130.874 3.17768H130.557V3.95949L130.886 2.946C131.119 2.946 131.327 2.92967 131.327 2.65257C131.327 2.42905 131.123 2.38771 130.932 2.38771H130.557V2.946H130.886L130.557 3.95949Z" fill="black"/>
<path fill-rule="evenodd" clip-rule="evenodd" d="M0.393799 53.5115V42.4219H1.80253V52.2826H5.87685V53.5115H0.393799Z" fill="black"/>
<path fill-rule="evenodd" clip-rule="evenodd" d="M8.40601 49.0784C8.42162 46.9378 9.08305 46.5547 9.88287 46.5547C10.8062 46.5547 11.4371 46.8307 11.4371 49.0784H8.40601ZM12.7805 50.032V49.3707C12.7805 46.8151 12.2248 45.6018 10.0064 45.6018C7.31805 45.6018 7.05688 47.4728 7.05688 49.7397C7.05688 53.1744 8.35987 53.6611 10.0064 53.6611C11.6209 53.6611 12.6776 52.8856 12.6932 51.1594H11.3143C11.2682 51.9469 10.8246 52.6422 9.96732 52.6422C8.98795 52.6422 8.40601 52.2094 8.40601 50.032H12.7805Z" fill="black"/>
<path fill-rule="evenodd" clip-rule="evenodd" d="M18.8634 49.5937C18.8634 50.6686 18.9095 52.4644 17.3801 52.4644C16.437 52.4644 15.865 51.8811 15.865 49.3943C15.865 48.3655 15.9111 46.6464 17.3489 46.6464C18.94 46.6464 18.8634 48.4422 18.8634 49.5937ZM18.8329 46.7074H18.8017C18.4461 45.9546 17.7975 45.6006 16.9778 45.6006C16.344 45.6006 14.5457 45.8312 14.5457 49.3943C14.5457 51.6974 14.9601 53.5094 17.0707 53.5094C17.7506 53.5094 18.4617 53.1561 18.7867 52.541H18.8329V54.1551C18.8329 54.9547 18.3538 55.4925 17.4724 55.4925C16.7769 55.4925 16.2979 55.0931 16.2823 54.3701H14.8679C14.7607 55.7997 15.9267 56.4461 17.2254 56.4461C18.94 56.4461 20.0919 56.031 20.0919 54.2935V45.7517H18.8329V46.7074Z" fill="black"/>
<path fill-rule="evenodd" clip-rule="evenodd" d="M23.2266 49.0784C23.2422 46.9378 23.9036 46.5547 24.7034 46.5547C25.6267 46.5547 26.2576 46.8307 26.2576 49.0784H23.2266ZM27.6011 50.032V49.3707C27.6011 46.8151 27.0447 45.6018 24.8269 45.6018C22.1379 45.6018 21.8774 47.4728 21.8774 49.7397C21.8774 53.1744 23.1804 53.6611 24.8269 53.6611C26.4414 53.6611 27.4982 52.8856 27.5138 51.1594H26.1349C26.0887 51.9469 25.6445 52.6422 24.7879 52.6422C23.8085 52.6422 23.2266 52.2094 23.2266 50.032H27.6011Z" fill="black"/>
<path fill-rule="evenodd" clip-rule="evenodd" d="M33.8819 53.5115V48.1264C33.8819 47.2948 33.5909 46.618 32.52 46.618C31.1425 46.618 30.9438 47.849 30.9438 48.9104V53.5115H29.6848V47.3566C29.6848 46.8181 29.6535 46.2824 29.6074 45.7488H30.9438V46.7414H31.0048C31.4945 45.873 32.0764 45.5991 33.0707 45.5991C34.7264 45.5991 35.1409 46.5875 35.1409 48.1264V53.5115H33.8819Z" fill="black"/>
<path fill-rule="evenodd" clip-rule="evenodd" d="M41.4784 49.314C41.4784 50.8856 41.4784 52.6423 40.064 52.6423C38.4807 52.6423 38.4807 50.9473 38.4807 49.7766C38.4807 47.6964 38.6652 46.6179 40.0179 46.6179C41.4174 46.6179 41.4784 48.2817 41.4784 49.314ZM41.4784 46.5264H41.4323C41.0022 45.9183 40.4642 45.599 39.7262 45.599C37.2231 45.599 37.1614 47.8198 37.1614 49.761C37.1614 53.1744 38.4189 53.6612 39.6644 53.6612C40.4791 53.6612 41.0171 53.3114 41.4479 52.5962H41.4784V53.5115H42.7381V42.4219H41.4784V46.5264Z" fill="black"/>
<path fill-rule="evenodd" clip-rule="evenodd" d="M48.8464 49.6424C48.9692 52.1626 48.0147 52.6422 47.2447 52.6422C46.398 52.6422 46.0283 51.9618 46.0283 51.2041C46.0283 49.5502 47.6449 49.6573 48.8464 49.6424ZM48.8769 53.5114H50.2594C50.1672 52.9104 50.1054 52.2783 50.1054 51.6617V47.9269C50.1054 46.6313 49.5838 45.6018 47.586 45.6018C45.9396 45.6018 45.0134 46.2013 44.9517 47.9269H46.3256C46.2483 47.1194 46.694 46.5547 47.5399 46.5547C48.8926 46.5547 48.8769 47.6679 48.8464 48.6889C47.0758 48.6428 44.7693 48.7499 44.7693 51.1111C44.7693 52.611 45.2455 53.6611 46.8905 53.6611C47.8607 53.6611 48.4611 53.2808 48.8464 52.3946H48.8769V53.5114Z" fill="black"/>
<path fill-rule="evenodd" clip-rule="evenodd" d="M53.3735 46.933H53.404C53.9263 45.7389 54.5721 45.5991 55.802 45.5991V46.9181C55.6948 46.9018 55.5714 46.8869 55.4642 46.8585C55.3563 46.8429 55.2492 46.828 55.1257 46.828C53.7269 46.828 53.3735 47.888 53.3735 48.9331V53.5115H52.1138V45.7488H53.3735V46.933Z" fill="black"/>
<path fill-rule="evenodd" clip-rule="evenodd" d="M60.1729 52.0669H60.2042L62.06 45.7488H63.4254L59.9125 56.4489H58.6088L59.4831 53.5122L56.8601 45.7488H58.3171L60.1729 52.0669Z" fill="black"/>
<path fill-rule="evenodd" clip-rule="evenodd" d="M70.0779 43.6507H72.2141C73.3056 43.6507 73.7051 44.5426 73.7051 45.3422C73.7051 46.3107 73.2133 47.1876 72.1985 47.1876H70.0779V43.6507ZM71.7379 48.4165C72.2141 48.4165 73.3056 48.4775 73.4127 49.8284C73.5362 51.3014 73.444 52.7445 73.8428 53.5115H75.3133C75.0983 52.8211 74.945 51.0864 74.9301 50.611C74.8534 48.3853 74.3942 47.9553 73.1211 47.7559V47.7247C74.4248 47.4948 75.1444 46.4959 75.1444 45.1882C75.1444 43.8047 74.4553 42.4219 72.4909 42.4219H68.6685V53.5115H70.0779V48.4165H71.7379Z" fill="black"/>
<path fill-rule="evenodd" clip-rule="evenodd" d="M78.3255 49.0784C78.3411 46.9378 79.0025 46.5547 79.803 46.5547C80.7256 46.5547 81.3566 46.8307 81.3566 49.0784H78.3255ZM82.7 50.032V49.3707C82.7 46.8151 82.1443 45.6018 79.9258 45.6018C77.2375 45.6018 76.9771 47.4728 76.9771 49.7397C76.9771 53.1744 78.28 53.6611 79.9258 53.6611C81.5404 53.6611 82.5978 52.8856 82.6134 51.1594H81.2338C81.1876 51.9469 80.7441 52.6422 79.8868 52.6422C78.9074 52.6422 78.3255 52.2094 78.3255 50.032H82.7Z" fill="black"/>
<path fill-rule="evenodd" clip-rule="evenodd" d="M86.0126 53.5115H84.7537V42.4219H86.0126V53.5115Z" fill="black"/>
<path fill-rule="evenodd" clip-rule="evenodd" d="M89.4256 53.5115H88.1658V45.7488H89.4256V53.5115ZM88.0764 42.4219H89.4852V43.7706H88.0764V42.4219Z" fill="black"/>
<path fill-rule="evenodd" clip-rule="evenodd" d="M95.5664 49.6424C95.6892 52.1626 94.7347 52.6422 93.9647 52.6422C93.1173 52.6422 92.7482 51.9618 92.7482 51.2041C92.7482 49.5502 94.3649 49.6573 95.5664 49.6424ZM95.597 53.5114H96.9787C96.8865 52.9104 96.8254 52.2783 96.8254 51.6617V47.9269C96.8254 46.6313 96.3031 45.6018 94.3053 45.6018C92.6588 45.6018 91.7334 46.2013 91.6716 47.9269H93.0449C92.9675 47.1194 93.4139 46.5547 94.2592 46.5547C95.6118 46.5547 95.597 47.6679 95.5664 48.6889C93.795 48.6428 91.4893 48.7499 91.4893 51.1111C91.4893 52.611 91.9647 53.6611 93.6105 53.6611C94.5807 53.6611 95.1811 53.2808 95.5664 52.3946H95.597V53.5114Z" fill="black"/>
<path fill-rule="evenodd" clip-rule="evenodd" d="M99.9523 49.314C99.9523 48.2817 100.013 46.6179 101.413 46.6179C102.766 46.6179 102.95 47.6964 102.95 49.7766C102.95 50.9473 102.95 52.6423 101.367 52.6423C99.814 52.6423 99.9523 50.5003 99.9523 49.314ZM99.9523 52.5962H99.9829C100.414 53.3114 100.952 53.6612 101.766 53.6612C103.012 53.6612 104.269 53.1744 104.269 49.761C104.269 47.8198 104.208 45.599 101.705 45.599C100.967 45.599 100.429 45.9183 99.9985 46.5264H99.9523V42.4219H98.6926V53.5115H99.9523V52.5962Z" fill="black"/>
<path fill-rule="evenodd" clip-rule="evenodd" d="M107.489 53.5115H106.23V45.7488H107.489V53.5115ZM106.14 42.4219H107.549V43.7706H106.14V42.4219Z" fill="black"/>
<path fill-rule="evenodd" clip-rule="evenodd" d="M110.902 53.5115H109.642V42.4219H110.902V53.5115Z" fill="black"/>
<path fill-rule="evenodd" clip-rule="evenodd" d="M114.315 53.5115H113.055V45.7488H114.315V53.5115ZM112.965 42.4219H114.375V43.7706H112.965V42.4219Z" fill="black"/>
<path fill-rule="evenodd" clip-rule="evenodd" d="M117.079 45.7516V44.2609L118.337 43.6919V45.7516H120.029V46.7052H118.337V51.4589C118.337 51.9513 118.337 52.582 119.491 52.582C119.583 52.582 119.782 52.5515 120.059 52.521V53.4796C119.645 53.5101 119.23 53.6016 118.814 53.6016C117.616 53.6016 117.079 53.1149 117.079 52.2287V46.7052H115.802V45.7516H117.079Z" fill="black"/>
<path fill-rule="evenodd" clip-rule="evenodd" d="M124.326 52.0669H124.357L126.213 45.7488H127.578L124.065 56.4489H122.761L123.636 53.5122L121.012 45.7488H122.47L124.326 52.0669Z" fill="black"/>
<path fill-rule="evenodd" clip-rule="evenodd" d="M132.902 45.414H132.499V43.4558H132.486L131.797 45.414H131.469L130.814 43.4558H130.803V45.414H130.4V42.9265H131.039L131.659 44.7776H131.67L132.274 42.9265H132.902V45.414ZM130.111 42.9265V43.2486H129.423V45.414H129.02V43.2486H128.335V42.9265H130.111Z" fill="black"/>
</g>
<defs>
<clipPath id="clip0">
<rect width="134" height="56.7196" fill="white"/>
</clipPath>
</defs>
</svg>