<svg width="192" height="36" viewBox="0 0 192 36" fill="none" xmlns="http://www.w3.org/2000/svg">
<path d="M34.1177 20.1881C33.8297 16.8183 31.2692 15.3479 26.2124 14.4594C22.6279 13.8468 21.6997 12.8664 21.6997 11.7024C21.6997 10.9059 22.2437 9.43546 25.1882 9.43546C26.9486 9.43546 28.7408 10.3545 29.2529 11.825L33.1897 9.55801C32.7415 8.82271 30.9172 5.2998 25.1882 5.2998C19.0753 5.2998 16.7069 9.55801 17.315 12.9278C17.8591 16.175 20.4835 17.4617 24.7723 18.2888C28.2287 18.9627 29.573 19.5753 29.701 20.5863C29.8931 21.7811 28.7408 23.1596 25.7963 23.1596C22.7879 23.1596 21.4436 21.9036 20.9315 20.5863L17.315 22.6695C18.3712 25.1814 20.8996 27.4178 25.9885 27.4178C31.0453 27.4178 34.5019 24.3543 34.1177 20.1881Z" fill="#0083E3"/>
<path d="M79.4048 20.1881C79.1168 16.8183 76.5243 15.3479 71.4356 14.4594C67.8189 13.8468 66.8907 12.8664 66.8907 11.7024C66.8907 10.9059 67.4349 9.43546 70.4114 9.43546C72.1716 9.43546 73.9959 10.3545 74.508 11.825L78.4767 9.40486C78.0287 8.66956 76.1723 5.2998 70.4114 5.2998C64.2344 5.2998 61.866 9.55801 62.4741 12.9278C63.0182 16.175 65.6745 17.4617 69.9953 18.2888C73.4838 18.9627 74.8281 19.5755 74.9561 20.5863C75.1481 21.7811 73.9959 23.1596 71.0195 23.1596C68.0109 23.1596 66.5067 21.9036 65.9946 20.5863L62.4741 22.6388C63.5303 25.1508 66.0906 27.3872 71.2115 27.3872C76.3004 27.4178 79.7889 24.3543 79.4048 20.1881Z" fill="#0083E3"/>
<path d="M100.912 5.63672H96.1756L90.7987 20.4024L85.3578 5.63672H80.6211L88.1743 25.7328C88.3342 26.1311 88.3342 26.5599 88.2063 26.9582C86.8941 30.8487 86.478 31.6452 83.8536 31.6452L81.9333 35.7809C88.3983 37.0674 90.7027 32.5337 93.199 26.1923L100.912 5.63672Z" fill="#0083E3"/>
<path d="M131.862 22.8531C131.094 23.2821 130.869 23.4047 129.941 23.037C128.981 22.6694 128.533 21.8729 128.533 19.9736V9.46605H133.142V5.6367H128.533V0L124.116 2.51205V5.6367H121.108V9.46605H124.116V20.1573C124.116 24.0479 125.365 26.223 128.149 27.0807C130.421 27.7546 133.526 27.2644 135.542 25.212L131.862 22.8531Z" fill="#0083E3"/>
<path d="M156.442 18.1662C156.57 17.4617 156.634 16.757 156.634 16.0218C156.634 9.98686 153.145 5.2998 146.648 5.2998C140.151 5.2998 135.894 10.2626 135.894 16.2975C135.894 22.3325 140.311 27.2952 146.808 27.2952C150.937 27.2952 153.945 25.6716 155.737 22.6388L151.897 20.4026C150.873 21.9956 149.144 23.0678 146.776 23.0678C143.511 23.0678 141.495 20.7701 140.823 18.105H156.442V18.1662ZM146.648 9.55801C149.976 9.55801 151.609 11.7024 152.089 14.4902H140.759C141.335 11.6718 143.287 9.55801 146.648 9.55801Z" fill="#0083E3"/>
<path d="M183.711 5.33044C180.733 5.33044 178.429 6.61699 176.893 8.82274C175.453 6.52519 173.085 5.33044 169.98 5.33044C167.803 5.33044 166.075 6.09634 164.731 7.32169V4.74829L160.314 7.22974V27.0195H164.731V15.072C164.731 11.0897 166.555 9.52729 169.276 9.52729C171.868 9.52729 173.949 11.1815 173.949 15.3479V27.0195H178.365V15.072C178.365 11.0897 180.318 9.52729 183.039 9.52729C185.598 9.52729 187.551 11.1815 187.551 15.3479V27.0195H192V14.9496C192.031 8.79214 189.024 5.33044 183.711 5.33044Z" fill="#0083E3"/>
<path d="M119.188 20.1881C118.899 16.8183 116.307 15.3479 111.218 14.4594C107.602 13.8468 106.674 12.8664 106.674 11.7024C106.674 10.9059 107.218 9.43546 110.194 9.43546C111.954 9.43546 113.779 10.3545 114.291 11.825L118.259 9.55801C117.811 8.82271 115.955 5.2998 110.194 5.2998C104.017 5.2998 101.649 9.55801 102.257 12.9278C102.801 16.175 105.457 17.4617 109.778 18.2888C113.267 18.9627 114.611 19.5755 114.739 20.5863C114.931 21.7811 113.779 23.1596 110.802 23.1596C107.794 23.1596 106.289 21.8423 105.777 20.4944L102.257 22.6388C103.313 25.1508 105.873 27.3872 110.994 27.3872C116.083 27.4178 119.572 24.3543 119.188 20.1881Z" fill="#0083E3"/>
<path d="M8.32153 26.9888H12.7063V25.9473V6.86209V4.74829L8.32153 7.26034V26.9888Z" fill="#0083E3"/>
<path d="M49.5444 5.5752C46.6959 5.5752 44.3916 6.52485 42.7913 8.14845V5.88149H38.3745V35.3517L42.9834 32.6253L42.7913 24.6909C44.3916 26.3146 46.6959 27.2643 49.5444 27.2643C55.9774 27.2643 59.8501 22.3627 59.8501 16.4197C59.8821 10.4767 56.0095 5.5752 49.5444 5.5752ZM49.0644 23.1286C44.9997 23.1286 42.9834 20.0652 42.9834 16.4197C42.9834 12.7743 45.0636 9.71084 49.0644 9.71084C53.0329 9.71084 55.0813 12.7743 55.0813 16.4197C55.0813 20.0652 53.065 23.1286 49.0644 23.1286Z" fill="#0083E3"/>
<path d="M3.07251 10.0171C4.76939 10.0171 6.145 8.7006 6.145 7.0764C6.145 5.45205 4.76939 4.1355 3.07251 4.1355C1.37561 4.1355 0 5.45205 0 7.0764C0 8.7006 1.37561 10.0171 3.07251 10.0171Z" fill="#F7D20F"/>
</svg>