<svg width="118" height="41" viewBox="0 0 118 41" fill="none" xmlns="http://www.w3.org/2000/svg">
<path d="M21.5591 20.587C21.5591 16.0855 18.5557 13.5284 14.3036 13.5284H11.7012V27.6503H14.2296C18.1832 27.6503 21.5591 25.5135 21.5591 20.587ZM67.8497 25.6678L48.6783 40.6799L31.1567 26.9617C28.6284 33.0017 22.5189 37.197 15.483 37.197H0.487305V3.97698H15.483C23.3449 3.97698 29.0104 8.94858 31.1519 14.2454L48.6783 0.541495L55.1699 5.62231L39.107 18.1771L42.194 20.5798L58.2521 8.03213L64.7531 13.0987L48.6927 25.6678L51.7749 28.0752L67.8497 15.5038V3.97698H79.5029V27.5007H91.1275V37.2373H67.8497V25.6678V25.6678ZM105.889 27.5054H117.509V37.2373H94.2241V3.97698H105.889V27.5054V27.5054Z" fill="#007DB8"/>
</svg>