<svg width="121" height="51" viewBox="0 0 121 51" fill="none" xmlns="http://www.w3.org/2000/svg">
<path d="M9.52409 0.711182H0V10.2271H9.52409V0.711182Z" fill="#00AAE8"/>
<path d="M9.28668 50.2888V16.0179H0.270996V50.2888H9.28668ZM69.2105 50.6275V42.2291C67.8886 42.2291 66.7701 42.1614 65.9567 42.0259C65.0077 41.8904 64.2959 41.5518 63.8214 41.0777C63.3469 40.6036 63.0418 39.9263 62.8724 39.0458C62.7368 38.1992 62.669 37.0817 62.669 35.7271V23.739H69.2105V16.0179H62.669V2.64143H53.6194V35.7948C53.6194 38.6056 53.8567 40.9761 54.3312 42.8725C54.8057 44.7351 55.6191 46.259 56.7376 47.4104C57.8561 48.5618 59.3474 49.3745 61.1438 49.8825C62.974 50.3904 65.2788 50.6275 68.0242 50.6275H69.2105ZM121 50.2888V0H111.95V50.2888H121ZM44.9088 19.3705C42.4007 16.6614 38.8757 15.3068 34.4018 15.3068C32.2326 15.3068 30.2668 15.747 28.4704 16.6275C26.708 17.508 25.1827 18.7271 23.9965 20.2849L23.4881 20.9283V20.3526V16.0179H14.5741V50.2888H23.5559V32.0359V33.2888C23.5559 33.0857 23.5559 32.8825 23.5559 32.6793C23.6575 29.4621 24.4371 27.0916 25.9284 25.5677C27.5214 23.9422 29.4533 23.1295 31.6564 23.1295C34.2662 23.1295 36.2659 23.9422 37.5878 25.5C38.8757 27.0578 39.5536 29.259 39.5536 32.0697V32.1374V50.255H48.671V30.8167C48.7049 25.9402 47.4169 22.0797 44.9088 19.3705ZM107.273 33.0857C107.273 30.6135 106.832 28.3108 105.985 26.1434C105.104 24.01 103.884 22.1135 102.358 20.488C100.799 18.8625 98.9351 17.6096 96.7659 16.6952C94.5967 15.7809 92.1903 15.3406 89.5805 15.3406C87.1062 15.3406 84.7676 15.8147 82.5984 16.7291C80.4292 17.6773 78.5312 18.9303 76.9382 20.5219C75.3452 22.1135 74.0572 24.01 73.1421 26.1773C72.1931 28.3446 71.7525 30.6813 71.7525 33.1534C71.7525 35.6255 72.1931 37.9621 73.0743 40.1295C73.9556 42.2968 75.2096 44.1932 76.7687 45.7849C78.3278 47.3765 80.2598 48.6633 82.4967 49.5777C84.7337 50.5259 87.2079 51 89.8516 51C97.5116 51 102.257 47.5119 105.104 44.261L98.5962 39.3167C97.2404 40.9422 93.9866 43.1434 89.9194 43.1434C87.3774 43.1434 85.276 42.5677 83.683 41.3825C82.09 40.2311 81.0054 38.6056 80.4292 36.6076L80.3275 36.3028H107.273V33.0857ZM80.3953 29.9363C80.3953 27.4303 83.2763 23.0618 89.4788 23.0279C95.6813 23.0279 98.5962 27.3964 98.5962 29.9024L80.3953 29.9363Z" fill="black"/>
</svg>