<?xml version="1.0" standalone="no"?>
<!DOCTYPE svg PUBLIC "-//W3C//DTD SVG 20010904//EN"
 "http://www.w3.org/TR/2001/REC-SVG-20010904/DTD/svg10.dtd">
<svg version="1.0" xmlns="http://www.w3.org/2000/svg"
 width="391.000000pt" height="391.000000pt" viewBox="0 0 391.000000 391.000000"
 preserveAspectRatio="xMidYMid meet">
<metadata>
Created by potrace 1.14, written by Peter Selinger 2001-2017
</metadata>
<g transform="translate(0.000000,391.000000) scale(0.100000,-0.100000)"
fill="#000000" stroke="none">
<path d="M1230 3279 c-75 -15 -180 -73 -242 -135 -157 -157 -193 -386 -92
-585 52 -103 174 -205 291 -243 28 -9 107 -21 175 -25 129 -8 165 -19 205 -63
39 -42 55 -97 63 -223 4 -66 15 -147 25 -179 28 -96 9 -173 -52 -213 -23 -15
-52 -18 -203 -18 -158 -1 -180 -3 -232 -23 -204 -81 -328 -258 -328 -467 0
-277 217 -496 493 -496 143 -1 251 44 353 145 104 105 147 217 146 381 -2 204
38 308 133 345 17 7 82 14 145 15 86 2 130 8 174 24 159 56 287 196 327 356
18 69 7 228 -20 298 -48 124 -165 237 -298 287 -45 18 -89 24 -198 29 -117 6
-147 11 -182 29 -66 35 -77 64 -80 222 -3 161 -23 237 -84 330 -111 165 -317
248 -519 209z"/>
<path d="M381 2474 c-152 -41 -276 -152 -341 -304 -32 -76 -39 -222 -15 -305
48 -165 165 -292 319 -345 185 -63 370 -18 512 124 104 105 144 201 144 347 0
108 -24 190 -81 277 -113 172 -341 259 -538 206z"/>
<path d="M3283 2476 c-181 -44 -334 -202 -372 -384 -69 -333 223 -645 557
-594 275 42 470 306 423 571 -52 288 -329 474 -608 407z"/>
</g>
</svg>
