<svg width="24" height="24" viewBox="0 0 24 24" fill="none" xmlns="http://www.w3.org/2000/svg">
<path d="M18.9999 5H17.9999V3C17.9999 2.73478 17.8946 2.48043 17.707 2.29289C17.5195 2.10536 17.2652 2 16.9999 2C16.7347 2 16.4804 2.10536 16.2928 2.29289C16.1053 2.48043 15.9999 2.73478 15.9999 3V5H7.99994V3C7.99994 2.73478 7.89458 2.48043 7.70705 2.29289C7.51951 2.10536 7.26516 2 6.99994 2C6.73472 2 6.48037 2.10536 6.29283 2.29289C6.1053 2.48043 5.99994 2.73478 5.99994 3V5H4.99994C4.20429 5 3.44123 5.31607 2.87862 5.87868C2.31601 6.44129 1.99994 7.20435 1.99994 8V9H21.9999V8C21.9999 7.20435 21.6839 6.44129 21.1213 5.87868C20.5587 5.31607 19.7956 5 18.9999 5Z" fill="white"/>
<path d="M1.99994 19C1.99994 19.7956 2.31601 20.5587 2.87862 21.1213C3.44123 21.6839 4.20429 22 4.99994 22H18.9999C19.7956 22 20.5587 21.6839 21.1213 21.1213C21.6839 20.5587 21.9999 19.7956 21.9999 19V11H1.99994V19Z" fill="white"/>
</svg>
