<svg width="52" height="52" viewBox="0 0 52 52" fill="none" xmlns="http://www.w3.org/2000/svg">
<rect width="52" height="52" rx="10" fill="#09BD3C"/>
<g clip-path="url(#clip0_325_3385)">
<path d="M34.9293 30.4004C34.9294 30.3966 34.9293 30.3927 34.9293 30.3889L34.9371 18.5152C34.9369 18.4212 34.9264 18.3275 34.906 18.2357L34.8284 17.9716L34.7507 17.8163L34.6653 17.7309C34.5585 17.5759 34.4243 17.4417 34.2693 17.3348L34.1916 17.2572L34.0984 17.164L33.8965 17.1019C33.783 17.0683 33.6654 17.0499 33.547 17.0475L21.6112 17.0708C20.8167 17.0676 20.17 17.7092 20.1668 18.5037C20.1668 18.5075 20.1668 18.5114 20.1668 18.5152C20.1853 19.3009 20.8178 19.9334 21.6035 19.9519L28.6935 19.9596C28.9967 19.9626 29.2402 20.2109 29.2372 20.5141C29.2358 20.6552 29.1802 20.7903 29.0818 20.8915L17.5187 32.4546C16.9568 33.0164 16.9568 33.9273 17.5186 34.4892C18.0804 35.0511 18.9913 35.0511 19.5532 34.4893C19.5533 34.4893 19.5533 34.4892 19.5534 34.4892L31.1164 22.9261C31.3338 22.7147 31.6815 22.7196 31.8929 22.937C31.9912 23.0382 32.0469 23.1733 32.0483 23.3144L32.0405 30.3889C32.0551 31.1805 32.6933 31.8188 33.4849 31.8333C34.2795 31.8365 34.9262 31.195 34.9293 30.4004Z" fill="#202020"/>
</g>
<defs>
<clipPath id="clip0_325_3385">
<rect width="24" height="24" fill="white" transform="translate(26 9.02954) rotate(45)"/>
</clipPath>
</defs>
</svg>
