<svg width="22" height="24" viewBox="0 0 22 24" fill="none" xmlns="http://www.w3.org/2000/svg">
<path d="M21.4049 7.4889C21.4075 8.47277 21.215 9.44739 20.8384 10.3564C20.4619 11.2653 19.9088 12.0906 19.2111 12.7843L9.7552 22.2402C8.74833 23.2457 7.38342 23.8103 5.96048 23.8098C4.53754 23.8094 3.17301 23.2439 2.16684 22.2377C1.16067 21.2316 0.595197 19.867 0.594727 18.4441C0.594257 17.0211 1.15883 15.6562 2.16434 14.6494L11.7381 5.07593C12.0391 4.7726 12.3971 4.53169 12.7914 4.36703C13.1857 4.20236 13.6087 4.11718 14.0361 4.11637C14.4634 4.11556 14.8867 4.19913 15.2817 4.36229C15.6766 4.52546 16.0355 4.765 16.3377 5.06718C16.6398 5.36936 16.8794 5.72823 17.0425 6.1232C17.2057 6.51817 17.2892 6.94146 17.2884 7.3688C17.2876 7.79614 17.2024 8.21912 17.0377 8.61345C16.873 9.00779 16.6321 9.36574 16.3288 9.66675L9.0751 16.9203C9.0048 16.9906 8.9094 17.0301 8.80995 17.0301C8.71051 17.0301 8.61514 16.9906 8.54481 16.9203L7.48427 15.8598C7.41396 15.7894 7.37446 15.6941 7.37446 15.5946C7.37446 15.4952 7.41396 15.3998 7.48427 15.3295L14.738 8.07592C14.8305 7.9834 14.9039 7.87355 14.954 7.75266C15.0041 7.63177 15.0299 7.50219 15.0299 7.37134C15.0299 7.24048 15.0041 7.11091 14.954 6.99002C14.9039 6.86912 14.8305 6.75928 14.738 6.66675C14.5479 6.48617 14.2956 6.38549 14.0334 6.38549C13.7712 6.38549 13.519 6.48617 13.3288 6.66675L3.75505 16.2402C3.17036 16.8249 2.84188 17.618 2.84189 18.4449C2.84191 19.2718 3.1704 20.0648 3.7551 20.6495C4.33981 21.2342 5.13284 21.5626 5.95973 21.5626C6.78662 21.5626 7.57964 21.2341 8.16434 20.6494L17.6204 11.1936C18.603 10.2111 19.155 8.87848 19.155 7.48896C19.155 6.09944 18.603 4.76683 17.6204 3.78429C16.6379 2.80176 15.3053 2.24977 13.9158 2.24978C12.5262 2.24978 11.1936 2.80177 10.2111 3.78431L6.0751 7.9203C6.00477 7.99061 5.9094 8.03011 5.80995 8.03011C5.71051 8.03011 5.61514 7.99061 5.54481 7.9203L4.48427 6.85976C4.41396 6.78944 4.37446 6.69406 4.37446 6.59462C4.37446 6.49517 4.41396 6.3998 4.48427 6.32947L8.62026 2.19364C9.6676 1.14633 11.002 0.433103 12.4547 0.144146C13.9074 -0.14481 15.4132 0.00348061 16.7816 0.570266C18.15 1.13705 19.3196 2.09688 20.1426 3.32838C20.9655 4.55988 21.4048 6.00775 21.4049 7.4889Z" fill="#1D5DFF"/>
</svg>
