<svg id="eocQvj4m2eV1" xmlns="http://www.w3.org/2000/svg" xmlns:xlink="http://www.w3.org/1999/xlink" viewBox="0 0 39 27" shape-rendering="geometricPrecision" text-rendering="geometricPrecision"><style><![CDATA[#eocQvj4m2eV2_to {animation: eocQvj4m2eV2_to__to 10000ms linear infinite alternate forwards}@keyframes eocQvj4m2eV2_to__to { 0% {transform: translate(19.069809px,9.56381px);animation-timing-function: cubic-bezier(0.64,-0.01,0.03,1.01)} 30% {transform: translate(22.450783px,13.328504px);animation-timing-function: cubic-bezier(0.64,-0.01,0.03,1.01)} 50% {transform: translate(25.418064px,13.5px);animation-timing-function: cubic-bezier(0.64,-0.01,0.03,1.01)} 75% {transform: translate(15.579147px,5.374851px);animation-timing-function: cubic-bezier(0.64,-0.01,0.03,1.01)} 100% {transform: translate(-2.041646px,13.328504px)}} #eocQvj4m2eV2_ts {animation: eocQvj4m2eV2_ts__ts 10000ms linear infinite alternate forwards}@keyframes eocQvj4m2eV2_ts__ts { 0% {transform: scale(0,0)} 30% {transform: scale(0,0);animation-timing-function: cubic-bezier(0.77,0,0.175,1)} 50% {transform: scale(1,1);animation-timing-function: cubic-bezier(0.77,0,0.175,1)} 75% {transform: scale(0,0);animation-timing-function: cubic-bezier(0.77,0,0.175,1)} 100% {transform: scale(1,1)}} #eocQvj4m2eV3_to {animation: eocQvj4m2eV3_to__to 10000ms linear infinite alternate forwards}@keyframes eocQvj4m2eV3_to__to { 0% {transform: translate(11.457801px,17.0932px);animation-timing-function: cubic-bezier(0.64,-0.01,0.03,1.01)} 30% {transform: translate(15.735305px,5.286304px);animation-timing-function: cubic-bezier(0.64,-0.01,0.03,1.01)} 50% {transform: translate(6.265004px,13.328504px);animation-timing-function: cubic-bezier(0.64,-0.01,0.03,1.01)} 75% {transform: translate(23.264931px,12.70381px);animation-timing-function: cubic-bezier(0.64,-0.01,0.03,1.01)} 100% {transform: translate(33.634855px,13.328352px)}} #eocQvj4m2eV3_ts {animation: eocQvj4m2eV3_ts__ts 10000ms linear infinite alternate forwards}@keyframes eocQvj4m2eV3_ts__ts { 0% {transform: scale(0,0)} 30% {transform: scale(0,0);animation-timing-function: cubic-bezier(0.77,0,0.175,1)} 50% {transform: scale(1,1);animation-timing-function: cubic-bezier(0.77,0,0.175,1)} 75% {transform: scale(0,0);animation-timing-function: cubic-bezier(0.77,0,0.175,1)} 100% {transform: scale(1,1)}} #eocQvj4m2eV4_tr {animation: eocQvj4m2eV4_tr__tr 10000ms linear infinite alternate forwards}@keyframes eocQvj4m2eV4_tr__tr { 0% {transform: translate(19.5px,13.328504px) rotate(-90deg);animation-timing-function: cubic-bezier(0.64,-0.01,0.03,1.01)} 30% {transform: translate(19.5px,13.328504px) rotate(0deg)} 100% {transform: translate(19.5px,13.328504px) rotate(0deg)}}]]></style><defs><linearGradient id="eocQvj4m2eV4-fill" x1="13.43" y1="3.6875" x2="14.773" y2="20.8787" spreadMethod="pad" gradientUnits="userSpaceOnUse" gradientTransform="translate(0 0)"><stop id="eocQvj4m2eV4-fill-0" offset="0%" stop-color="#00a0e3"/><stop id="eocQvj4m2eV4-fill-1" offset="100%" stop-color="#3e3185"/></linearGradient></defs><g id="eocQvj4m2eV2_to" transform="translate(19.069809,9.56381)"><g id="eocQvj4m2eV2_ts" transform="scale(0,0)"><path d="M32.3066,7.6229c2.6151,0,4.7352,2.1201,4.7352,4.7352s-2.1201,4.7351-4.7352,4.7351-4.7351-2.1199-4.7351-4.7351s2.12-4.7352,4.7351-4.7352Z" transform="translate(-24,-12.35805)" clip-rule="evenodd" fill="#00a0e3" fill-rule="evenodd"/></g></g><g id="eocQvj4m2eV3_to" transform="translate(11.457801,17.0932)"><g id="eocQvj4m2eV3_ts" transform="scale(0,0)"><path d="M4.7352,7.6229c2.6152,0,4.7352,2.1201,4.7352,4.7352s-2.12,4.7351-4.7352,4.7351-4.735101-2.1199-4.735101-4.7351s2.119901-4.7352,4.735101-4.7352Z" transform="translate(-4.73525,-12.35805)" clip-rule="evenodd" fill="#00a0e3" fill-rule="evenodd"/></g></g><g id="eocQvj4m2eV4_tr" transform="translate(19.5,13.328504) rotate(-90)"><path d="M12.6477,0c2.6152,0,4.7352,2.12,4.7352,4.7352c0,.0803-.002.1602-.006.2394h.0001c.031.732-.557,2.6431,2.1348,2.6952.2175-.0305.4394-.0468.6653-.0468.076,0,.1516.002.2268.0056l.0142-.0014-.0019.0019c2.5041.1244,4.4961,2.1941,4.4961,4.7291c0,2.6152-2.12,4.7351-4.7352,4.7351-.2361,0-.4679-.0175-.6947-.0508-1.9661.0565-2.2572,1.7507-2.0686,3.8937l.0003-.1877-.0325-.0329c.0008.0346.0013.0692.0013.104c0,2.6151-2.12,4.7351-4.7352,4.7351s-4.73509-2.12-4.73509-4.7351c0-2.6153,2.11999-4.7352,4.73509-4.7352.2154,0,.4273.0147.6349.0425c1.0322.1031,2.8472.379,2.5111-1.9752-.2266-.5532-.3517-1.1587-.3517-1.7935c0-.1743.0097-.3464.0281-.5159-.115-1.5397-.6979-2.3516-2.3909-2.3917-.1422.0129-.286.0197-.4314.0197h-.0001c-.0562,0-.1121-.0013-.1679-.0032l-.0197-.0004.0037-.0002C9.93391,9.3698,7.91261,7.2887,7.91261,4.7352C7.91261,2.12,10.0326,0,12.6477,0Z" transform="translate(-16.412456,-12.77735)" clip-rule="evenodd" fill="url(#eocQvj4m2eV4-fill)" fill-rule="evenodd"/></g></svg>