<svg width="24" height="24" viewBox="0 0 24 24" fill="none" xmlns="http://www.w3.org/2000/svg">
<path d="M9.99989 12C9.99989 13.1046 10.8953 14 11.9999 14C13.1044 14 13.9999 13.1046 13.9999 12C13.9999 10.8954 13.1044 10 11.9999 10C10.8953 10 9.99989 10.8954 9.99989 12Z" fill="white"/>
<path d="M9.99989 4C9.99989 5.10456 10.8953 5.99999 11.9999 5.99999C13.1044 5.99999 13.9999 5.10456 13.9999 4C13.9999 2.89543 13.1044 2 11.9999 2C10.8953 2 9.99989 2.89543 9.99989 4Z" fill="white"/>
<path d="M9.99989 20C9.99989 21.1046 10.8953 22 11.9999 22C13.1044 22 13.9999 21.1046 13.9999 20C13.9999 18.8954 13.1044 18 11.9999 18C10.8953 18 9.99989 18.8954 9.99989 20Z" fill="white"/>
</svg>
