<svg width="28" height="28" viewBox="0 0 28 28" fill="none" xmlns="http://www.w3.org/2000/svg">
<path d="M25.8533 16.7998L24.318 15.9143C24.5606 14.6488 24.5606 13.3486 24.318 12.083L25.8533 11.1998C25.9861 11.1232 26.1025 11.0212 26.1959 10.8995C26.2893 10.7779 26.3577 10.6391 26.3974 10.4909C26.4371 10.3428 26.4471 10.1883 26.427 10.0363C26.4069 9.8843 26.3571 9.73773 26.2803 9.605L23.9469 5.56367C23.8706 5.4307 23.7689 5.31408 23.6474 5.22047C23.526 5.12686 23.3874 5.0581 23.2393 5.01811C23.0913 4.97813 22.9369 4.96772 22.7849 4.98746C22.6328 5.0072 22.4862 5.05671 22.3533 5.13317L20.8191 6.01984C19.8392 5.18473 18.7141 4.53696 17.4999 4.10884V2.33317C17.4999 2.02375 17.377 1.72701 17.1582 1.50821C16.9394 1.28942 16.6427 1.1665 16.3333 1.1665H11.6666C11.3572 1.1665 11.0605 1.28942 10.8417 1.50821C10.6229 1.72701 10.4999 2.02375 10.4999 2.33317V4.10884C9.28567 4.53731 8.16056 5.18549 7.18078 6.021L5.64662 5.13317C5.51387 5.05662 5.36734 5.00697 5.2154 4.98706C5.06345 4.96714 4.90908 4.97736 4.76109 5.01712C4.61309 5.05688 4.47438 5.12541 4.35288 5.21879C4.23138 5.31216 4.12946 5.42856 4.05295 5.56134L1.71962 9.60267C1.64247 9.7355 1.59231 9.88226 1.57202 10.0345C1.55173 10.1868 1.56171 10.3415 1.60138 10.4899C1.64106 10.6383 1.70964 10.7774 1.80321 10.8993C1.89677 11.0211 2.01348 11.1232 2.14662 11.1998L3.68195 12.0853C3.4393 13.3509 3.4393 14.6511 3.68195 15.9167L2.14662 16.7998C2.01379 16.8764 1.89736 16.9785 1.804 17.1001C1.71063 17.2218 1.64216 17.3606 1.60251 17.5087C1.56285 17.6569 1.55278 17.8113 1.57287 17.9634C1.59297 18.1154 1.64283 18.2619 1.71962 18.3947L4.05295 22.436C4.20759 22.704 4.46231 22.8995 4.76112 22.9797C5.06018 23.0581 5.37807 23.0162 5.64662 22.863L7.18078 21.9763C8.16038 22.8127 9.2855 23.4617 10.4999 23.8908V25.6665C10.4999 25.9759 10.6229 26.2727 10.8417 26.4915C11.0605 26.7103 11.3572 26.8332 11.6666 26.8332H16.3333C16.6427 26.8332 16.9394 26.7103 17.1582 26.4915C17.377 26.2727 17.4999 25.9759 17.4999 25.6665V23.8908C18.7142 23.4624 19.8393 22.8142 20.8191 21.9787L22.3533 22.8653C22.6217 23.0188 22.9397 23.0607 23.2388 22.982C23.5376 22.9018 23.7923 22.7063 23.9469 22.4383L26.2803 18.397C26.3574 18.2642 26.4076 18.1174 26.4279 17.9652C26.4482 17.8129 26.4382 17.6581 26.3985 17.5097C26.3588 17.3613 26.2903 17.2222 26.1967 17.1004C26.1031 16.9786 25.9864 16.8764 25.8533 16.7998ZM13.9999 19.8332C12.8462 19.8332 11.7184 19.4911 10.7591 18.8501C9.79984 18.2091 9.05216 17.2981 8.61065 16.2322C8.16914 15.1663 8.05362 13.9934 8.2787 12.8618C8.50378 11.7303 9.05935 10.6909 9.87516 9.87505C10.691 9.05924 11.7304 8.50367 12.8619 8.27859C13.9935 8.05351 15.1664 8.16903 16.2323 8.61054C17.2982 9.05205 18.2092 9.79972 18.8502 10.759C19.4912 11.7183 19.8333 12.8461 19.8333 13.9998C19.8314 15.5464 19.2163 17.029 18.1227 18.1226C17.0291 19.2161 15.5465 19.8313 13.9999 19.8332V19.8332Z" fill="white"/>
</svg>
