<svg width="24" height="24" viewBox="0 0 24 24" fill="none" xmlns="http://www.w3.org/2000/svg">
<path d="M22.4208 9.39C22.2445 8.862 21.799 8.48325 21.259 8.40075L15.7773 7.5795L13.3098 2.3415C13.0645 1.8225 12.5628 1.5 11.9995 1.5C11.4363 1.5 10.9345 1.8225 10.6893 2.3415L8.25777 7.56075L2.74002 8.40075C2.20002 8.48325 1.75527 8.862 1.57827 9.39C1.39752 9.93225 1.53102 10.5203 1.92702 10.9245L5.91777 15.009L4.97502 20.766C4.88127 21.3412 5.11377 21.9045 5.58327 22.2352C6.03477 22.5555 6.61527 22.587 7.09827 22.3207L11.965 19.6027L16.9008 22.3207C17.3853 22.587 17.9643 22.554 18.4158 22.2352C18.8853 21.9045 19.1185 21.3412 19.024 20.766L18.0798 15.0015L22.072 10.9245C22.468 10.5203 22.6015 9.93225 22.4208 9.39Z" fill="#FFAB2D"/>
</svg>
