<svg width="48" height="48" viewBox="0 0 48 48" fill="none" xmlns="http://www.w3.org/2000/svg">
<g clip-path="url(#clip0)">
<path d="M24.6813 15.7381L15.3888 2.5744C15.1336 2.21328 14.7955 1.91867 14.4028 1.71534C14.0101 1.51201 13.5744 1.40588 13.1322 1.40588C12.69 1.40588 12.2543 1.51201 11.8616 1.71534C11.469 1.91867 11.1308 2.21328 10.8756 2.5744L1.58314 15.7381C1.33943 16.0856 1.1956 16.4933 1.16728 16.9168C1.13897 17.3403 1.22724 17.7635 1.42252 18.1404C1.6178 18.5173 1.91262 18.8335 2.27495 19.0546C2.63728 19.2757 3.05327 19.3933 3.47774 19.3947H7.60498V44.2631C7.60498 44.9959 7.8961 45.6987 8.41429 46.2169C8.93248 46.7351 9.6353 47.0262 10.3681 47.0262H15.8945C16.6273 47.0262 17.3301 46.7351 17.8483 46.2169C18.3665 45.6987 18.6576 44.9959 18.6576 44.2631V19.3947H22.7858C23.2103 19.3935 23.6264 19.276 23.9889 19.055C24.3514 18.8339 24.6463 18.5177 24.8417 18.1408C25.0371 17.7639 25.1254 17.3407 25.0972 16.917C25.0689 16.4934 24.925 16.0857 24.6813 15.7381ZM22.7867 17.5526H17.7366C17.4923 17.5526 17.258 17.6496 17.0853 17.8223C16.9125 17.9951 16.8155 18.2293 16.8155 18.4736V44.2631C16.8155 44.5074 16.7185 44.7416 16.5457 44.9144C16.373 45.0871 16.1387 45.1841 15.8945 45.1841H10.3681C10.1239 45.1841 9.88959 45.0871 9.71685 44.9144C9.54412 44.7416 9.44708 44.5074 9.44708 44.2631V18.4736C9.44708 18.2293 9.35005 17.9951 9.17731 17.8223C9.00458 17.6496 8.77031 17.5526 8.52603 17.5526H3.47774C3.39041 17.5522 3.30484 17.528 3.23031 17.4825C3.15579 17.4369 3.09516 17.3719 3.05501 17.2943C3.01485 17.2168 2.99671 17.1297 3.00255 17.0426C3.00839 16.9554 3.03799 16.8716 3.08814 16.8001L12.3797 3.63729C12.4648 3.51679 12.5775 3.41848 12.7084 3.35063C12.8394 3.28277 12.9847 3.24735 13.1322 3.24735C13.2797 3.24735 13.425 3.28277 13.556 3.35063C13.6869 3.41848 13.7997 3.51679 13.8847 3.63729L23.1763 16.8001C23.2264 16.8716 23.256 16.9554 23.2619 17.0426C23.2677 17.1297 23.2496 17.2168 23.2094 17.2943C23.1693 17.3719 23.1086 17.4369 23.0341 17.4825C22.9596 17.528 22.874 17.5522 22.7867 17.5526Z" fill="#BFCBD7"/>
<path d="M44.8918 28.6052H40.7627V3.73679C40.7627 3.00396 40.4716 2.30114 39.9534 1.78294C39.4352 1.26475 38.7324 0.973633 37.9996 0.973633H32.4733C31.7404 0.973633 31.0376 1.26475 30.5194 1.78294C30.0012 2.30114 29.7101 3.00396 29.7101 3.73679V28.6052H25.5829C25.1583 28.6064 24.7421 28.724 24.3796 28.9452C24.0171 29.1663 23.7222 29.4826 23.5269 29.8597C23.3316 30.2367 23.2434 30.6601 23.2718 31.0837C23.3003 31.5074 23.4443 31.9152 23.6883 32.2627L32.9799 45.4264C33.235 45.7875 33.5732 46.0821 33.9658 46.2854C34.3585 46.4888 34.7942 46.5949 35.2364 46.5949C35.6786 46.5949 36.1144 46.4888 36.507 46.2854C36.8997 46.0821 37.2378 45.7875 37.493 45.4264L46.7864 32.2627C47.0304 31.9152 47.1744 31.5074 47.2029 31.0837C47.2313 30.6601 47.1431 30.2367 46.9478 29.8597C46.7525 29.4826 46.4576 29.1663 46.0951 28.9452C45.7326 28.724 45.3165 28.6064 44.8918 28.6052ZM45.2814 31.1989L35.9899 44.3626C35.9015 44.4783 35.7876 44.5721 35.6571 44.6366C35.5266 44.7012 35.383 44.7347 35.2374 44.7347C35.0918 44.7347 34.9481 44.7012 34.8176 44.6366C34.6871 44.5721 34.5732 44.4783 34.4849 44.3626L25.197 31.1989C25.1469 31.1277 25.1173 31.0442 25.1112 30.9574C25.1052 30.8707 25.123 30.7839 25.1628 30.7065C25.2025 30.6291 25.2627 30.564 25.3367 30.5183C25.4108 30.4727 25.4959 30.4481 25.5829 30.4473H30.6312C30.8754 30.4473 31.1097 30.3503 31.2825 30.1775C31.4552 30.0048 31.5522 29.7705 31.5522 29.5263V3.73679C31.5522 3.49251 31.6493 3.25824 31.822 3.08551C31.9947 2.91278 32.229 2.81574 32.4733 2.81574H37.9996C38.2439 2.81574 38.4781 2.91278 38.6509 3.08551C38.8236 3.25824 38.9206 3.49251 38.9206 3.73679V29.5263C38.9206 29.7705 39.0177 30.0048 39.1904 30.1775C39.3631 30.3503 39.5974 30.4473 39.8417 30.4473H44.8909C44.9783 30.4473 45.064 30.4712 45.1387 30.5166C45.2134 30.5619 45.2743 30.6269 45.3145 30.7044C45.3548 30.782 45.3731 30.8691 45.3672 30.9563C45.3614 31.0435 45.3317 31.1274 45.2814 31.1989Z" fill="#BFCBD7"/>
</g>
<defs>
<clipPath id="clip0">
<rect width="46.4211" height="46.4211" fill="white" transform="translate(0.789062 0.789429)"/>
</clipPath>
</defs>
</svg>