<svg width="48" height="44" viewBox="0 0 48 44" fill="none" xmlns="http://www.w3.org/2000/svg">
<g clip-path="url(#clip0)">
<path d="M44.4467 0.447388H3.92038C3.18755 0.447388 2.48473 0.738505 1.96654 1.2567C1.44834 1.77489 1.15723 2.47771 1.15723 3.21055V32.6842C1.15723 33.4171 1.44834 34.1199 1.96654 34.6381C2.48473 35.1563 3.18755 35.4474 3.92038 35.4474H15.8941V41.8948H12.2099C11.9656 41.8948 11.7313 41.9918 11.5586 42.1645C11.3858 42.3373 11.2888 42.5715 11.2888 42.8158C11.2888 43.0601 11.3858 43.2944 11.5586 43.4671C11.7313 43.6398 11.9656 43.7369 12.2099 43.7369H36.1572C36.4015 43.7369 36.6358 43.6398 36.8085 43.4671C36.9812 43.2944 37.0783 43.0601 37.0783 42.8158C37.0783 42.5715 36.9812 42.3373 36.8085 42.1645C36.6358 41.9918 36.4015 41.8948 36.1572 41.8948H32.473V35.4474H44.4467C45.1795 35.4474 45.8824 35.1563 46.4005 34.6381C46.9187 34.1199 47.2099 33.4171 47.2099 32.6842V3.21055C47.2099 2.47771 46.9187 1.77489 46.4005 1.2567C45.8824 0.738505 45.1795 0.447388 44.4467 0.447388ZM3.92038 2.28949H44.4467C44.691 2.28949 44.9253 2.38653 45.098 2.55926C45.2707 2.73199 45.3678 2.96627 45.3678 3.21055V28.079H42.6046V6.89476C42.6046 6.4062 42.4105 5.93765 42.0651 5.59219C41.7196 5.24673 41.251 5.05265 40.7625 5.05265H7.6046C7.11604 5.05265 6.64749 5.24673 6.30203 5.59219C5.95657 5.93765 5.76249 6.4062 5.76249 6.89476V28.079H2.99933V3.21055C2.99933 2.96627 3.09637 2.73199 3.2691 2.55926C3.44183 2.38653 3.67611 2.28949 3.92038 2.28949ZM7.6046 28.079V11.5H15.8941V28.079H7.6046ZM40.7625 9.65791H7.6046V6.89476H40.7625V9.65791ZM17.7362 11.5H40.7625V28.079H17.7362V11.5ZM30.6309 41.8948H17.7362V35.4474H30.6309V41.8948ZM44.4467 33.6053H3.92038C3.67611 33.6053 3.44183 33.5082 3.2691 33.3355C3.09637 33.1628 2.99933 32.9285 2.99933 32.6842V29.9211H45.3678V32.6842C45.3678 32.9285 45.2707 33.1628 45.098 33.3355C44.9253 33.5082 44.691 33.6053 44.4467 33.6053Z" fill="#BFCBD7"/>
<path d="M37.0789 14.2632H21.4211C21.1768 14.2632 20.9425 14.3602 20.7698 14.533C20.597 14.7057 20.5 14.94 20.5 15.1842V20.7106C20.5 20.9548 20.597 21.1891 20.7698 21.3618C20.9425 21.5346 21.1768 21.6316 21.4211 21.6316H37.0789C37.3232 21.6316 37.5575 21.5346 37.7302 21.3618C37.903 21.1891 38 20.9548 38 20.7106V15.1842C38 14.94 37.903 14.7057 37.7302 14.533C37.5575 14.3602 37.3232 14.2632 37.0789 14.2632ZM36.1579 19.7895H22.3421V16.1053H36.1579V19.7895Z" fill="#BFCBD7"/>
</g>
<defs>
<clipPath id="clip0">
<rect width="46.4211" height="43.4737" fill="white" transform="translate(0.789062 0.263184)"/>
</clipPath>
</defs>
</svg>