<svg width="48" height="48" viewBox="0 0 48 48" fill="none" xmlns="http://www.w3.org/2000/svg">
<g clip-path="url(#clip0)">
<path d="M44.2631 7.421H37.8157V5.5789C37.8157 2.41416 30.6546 0.973633 23.9999 0.973633C17.3453 0.973633 10.1842 2.41416 10.1842 5.5789V7.421H3.73679C3.00396 7.421 2.30114 7.71212 1.78294 8.23031C1.26475 8.7485 0.973633 9.45132 0.973633 10.1842V36.8947C0.973633 37.6275 1.26475 38.3303 1.78294 38.8485C2.30114 39.3667 3.00396 39.6578 3.73679 39.6578H16.9815L15.8763 45.1842H13.8684C13.6241 45.1842 13.3898 45.2812 13.2171 45.4539C13.0444 45.6267 12.9473 45.8609 12.9473 46.1052C12.9473 46.3495 13.0444 46.5838 13.2171 46.7565C13.3898 46.9292 13.6241 47.0263 13.8684 47.0263H34.1315C34.3758 47.0263 34.6101 46.9292 34.7828 46.7565C34.9555 46.5838 35.0526 46.3495 35.0526 46.1052C35.0526 45.8609 34.9555 45.6267 34.7828 45.4539C34.6101 45.2812 34.3758 45.1842 34.1315 45.1842H32.1236L31.0184 39.6578H44.2631C44.9959 39.6578 45.6988 39.3667 46.217 38.8485C46.7351 38.3303 47.0263 37.6275 47.0263 36.8947V10.1842C47.0263 9.45132 46.7351 8.7485 46.217 8.23031C45.6988 7.71212 44.9959 7.421 44.2631 7.421ZM35.9736 15.7105C35.9736 16.5394 31.8998 18.4736 23.9999 18.4736C16.1001 18.4736 12.0263 16.5394 12.0263 15.7105V8.03534C14.5822 9.49797 19.4113 10.1842 23.9999 10.1842C28.5886 10.1842 33.4177 9.49797 35.9736 8.03534V15.7105ZM12.0263 18.1669C14.5822 19.6296 19.4113 20.3157 23.9999 20.3157C28.5886 20.3157 33.4177 19.6296 35.9736 18.1669V25.8421C35.9736 26.671 31.8998 28.6052 23.9999 28.6052C16.1001 28.6052 12.0263 26.671 12.0263 25.8421V18.1669ZM23.9999 2.81574C31.8998 2.81574 35.9736 4.74995 35.9736 5.5789C35.9736 6.40784 31.8998 8.34205 23.9999 8.34205C16.1001 8.34205 12.0263 6.40784 12.0263 5.5789C12.0263 4.74995 16.1001 2.81574 23.9999 2.81574ZM3.73679 9.26311H10.1842V25.8421C10.1842 29.0068 17.3453 30.4473 23.9999 30.4473C30.6546 30.4473 37.8157 29.0068 37.8157 25.8421V9.26311H44.2631C44.5074 9.26311 44.7417 9.36015 44.9144 9.53288C45.0871 9.70561 45.1842 9.93988 45.1842 10.1842V32.2894H2.81574V10.1842C2.81574 9.93988 2.91278 9.70561 3.08551 9.53288C3.25824 9.36015 3.49251 9.26311 3.73679 9.26311ZM30.2447 45.1842H17.7552L18.8605 39.6578H29.1394L30.2447 45.1842ZM44.2631 37.8157H3.73679C3.49251 37.8157 3.25824 37.7187 3.08551 37.546C2.91278 37.3732 2.81574 37.139 2.81574 36.8947V34.1315H45.1842V36.8947C45.1842 37.139 45.0871 37.3732 44.9144 37.546C44.7417 37.7187 44.5074 37.8157 44.2631 37.8157Z" fill="#BFCBD7"/>
<path d="M16.8156 13.8315C16.7629 14.07 16.8072 14.3197 16.9387 14.5256C17.0701 14.7315 17.278 14.8768 17.5165 14.9294C19.653 15.376 21.831 15.594 24.0136 15.5797C26.2462 15.5963 28.4738 15.3671 30.6563 14.8962C30.7767 14.8718 30.891 14.8236 30.9925 14.7543C31.094 14.685 31.1806 14.5961 31.2472 14.4928C31.3138 14.3896 31.3591 14.274 31.3804 14.153C31.4016 14.032 31.3985 13.9079 31.3711 13.7881C31.3437 13.6683 31.2926 13.5552 31.2208 13.4555C31.149 13.3558 31.058 13.2714 30.9531 13.2074C30.8482 13.1434 30.7315 13.101 30.61 13.0827C30.4885 13.0645 30.3645 13.0707 30.2455 13.1011C28.1977 13.5406 26.1079 13.754 24.0136 13.7376C21.9645 13.7524 19.9195 13.549 17.9135 13.1306C17.6749 13.0779 17.4253 13.1222 17.2194 13.2537C17.0135 13.3851 16.8682 13.593 16.8156 13.8315Z" fill="#BFCBD7"/>
<path d="M17.5131 25.061C19.6496 25.5076 21.8275 25.7256 24.0102 25.7113C26.2428 25.7279 28.4704 25.4987 30.6528 25.0278C30.7733 25.0034 30.8876 24.9551 30.9891 24.8859C31.0906 24.8166 31.1772 24.7277 31.2438 24.6244C31.3104 24.5212 31.3557 24.4056 31.3769 24.2846C31.3982 24.1635 31.3951 24.0395 31.3676 23.9197C31.3402 23.7999 31.2891 23.6868 31.2173 23.5871C31.1455 23.4873 31.0545 23.403 30.9496 23.339C30.8447 23.2749 30.7281 23.2326 30.6066 23.2143C30.4851 23.1961 30.3611 23.2023 30.242 23.2327C28.1943 23.6722 26.1045 23.8856 24.0102 23.8692C21.961 23.884 19.9161 23.6806 17.91 23.2622C17.6718 23.2103 17.4227 23.255 17.2173 23.3865C17.012 23.518 16.8672 23.7255 16.8146 23.9636C16.7621 24.2018 16.8061 24.451 16.937 24.6567C17.0679 24.8624 17.2751 25.0078 17.5131 25.061Z" fill="#BFCBD7"/>
</g>
<defs>
<clipPath id="clip0">
<rect width="46.4211" height="46.4211" fill="white" transform="translate(0.789062 0.789429)"/>
</clipPath>
</defs>
</svg>