<svg width="47" height="48" viewBox="0 0 47 48" fill="none" xmlns="http://www.w3.org/2000/svg">
<g clip-path="url(#clip0)">
<path d="M44.507 18.1254L39.3951 14.1943V3.73668C39.3951 3.00385 39.104 2.30103 38.5858 1.78283C38.0676 1.26464 37.3648 0.973525 36.632 0.973525H17.1324C16.7692 0.972369 16.4095 1.04334 16.074 1.18232C15.7384 1.3213 15.4339 1.52552 15.1779 1.78313L8.88896 8.07208C8.63135 8.32804 8.42713 8.63261 8.28815 8.96812C8.14917 9.30363 8.0782 9.6634 8.07936 10.0266V12.0262H3.4741C2.74126 12.0262 2.03844 12.3173 1.52025 12.8355C1.00206 13.3537 0.710938 14.0565 0.710938 14.7893V44.263C0.710938 44.9958 1.00206 45.6987 1.52025 46.2168C2.03844 46.735 2.74126 47.0262 3.4741 47.0262H29.2636C29.9964 47.0262 30.6992 46.735 31.2174 46.2168C31.7356 45.6987 32.0267 44.9958 32.0267 44.263V39.6577H36.632C37.3648 39.6577 38.0676 39.3666 38.5858 38.8484C39.104 38.3302 39.3951 37.6274 39.3951 36.8946V26.4369L44.507 22.5059C44.8425 22.2478 45.1143 21.9161 45.3013 21.5363C45.4883 21.1566 45.5856 20.7389 45.5856 20.3156C45.5856 19.8923 45.4883 19.4747 45.3013 19.0949C45.1143 18.7152 44.8425 18.3834 44.507 18.1254ZM15.4478 4.118V7.42089C15.4478 7.66517 15.3507 7.89944 15.178 8.07218C15.0053 8.24491 14.771 8.34195 14.5267 8.34195H11.2238L15.4478 4.118ZM30.1846 44.263C30.1846 44.5073 30.0876 44.7415 29.9149 44.9143C29.7421 45.087 29.5078 45.184 29.2636 45.184H3.4741C3.22982 45.184 2.99554 45.087 2.82281 44.9143C2.65008 44.7415 2.55304 44.5073 2.55304 44.263V14.7893C2.55304 14.545 2.65008 14.3108 2.82281 14.138C2.99554 13.9653 3.22982 13.8683 3.4741 13.8683H8.07936V36.8946C8.07936 37.6274 8.37048 38.3302 8.88867 38.8484C9.40686 39.3666 10.1097 39.6577 10.8425 39.6577H30.1846V44.263ZM37.553 36.8946C37.553 37.1389 37.456 37.3731 37.2833 37.5459C37.1105 37.7186 36.8763 37.8156 36.632 37.8156H10.8425C10.5982 37.8156 10.364 37.7186 10.1912 37.5459C10.0185 37.3731 9.92146 37.1389 9.92146 36.8946V10.1841H14.5267C15.2596 10.1841 15.9624 9.89293 16.4806 9.37474C16.9988 8.85655 17.2899 8.15373 17.2899 7.42089V2.81563H36.632C36.8763 2.81563 37.1105 2.91267 37.2833 3.0854C37.456 3.25813 37.553 3.4924 37.553 3.73668V12.7768L35.9136 11.5159C35.6409 11.306 35.3149 11.1767 34.9725 11.1426C34.6302 11.1084 34.2851 11.1709 33.9763 11.3228C33.6676 11.4748 33.4077 11.7102 33.2259 12.0023C33.0441 12.2945 32.9477 12.6317 32.9478 12.9758V15.7104H17.2899C16.8013 15.7104 16.3328 15.9044 15.9873 16.2499C15.6419 16.5954 15.4478 17.0639 15.4478 17.5525V23.0788C15.4478 23.5673 15.6419 24.0359 15.9873 24.3814C16.3328 24.7268 16.8013 24.9209 17.2899 24.9209H32.9478V27.6555C32.9479 27.9994 33.0443 28.3364 33.226 28.6284C33.4077 28.9204 33.6676 29.1557 33.9762 29.3076C34.2847 29.4595 34.6296 29.522 34.9719 29.4881C35.3141 29.4541 35.64 29.325 35.9127 29.1154L37.553 27.8535V36.8946ZM43.3833 21.046L34.7899 27.6555V23.9998C34.7899 23.7556 34.6928 23.5213 34.5201 23.3486C34.3474 23.1758 34.1131 23.0788 33.8688 23.0788H17.2899V17.5525H33.8688C34.1131 17.5525 34.3474 17.4554 34.5201 17.2827C34.6928 17.11 34.7899 16.8757 34.7899 16.6314V12.9758L43.3824 19.5852C43.4944 19.6712 43.5852 19.7817 43.6476 19.9083C43.7101 20.0349 43.7427 20.1742 43.7428 20.3154C43.7429 20.4566 43.7105 20.5959 43.6482 20.7226C43.5858 20.8493 43.4952 20.9599 43.3833 21.046Z" fill="#BFCBD7"/>
</g>
<defs>
<clipPath id="clip0">
<rect width="45.6842" height="46.4211" fill="white" transform="translate(0.526367 0.789429)"/>
</clipPath>
</defs>
</svg>