<svg width="48" height="48" viewBox="0 0 48 48" fill="none" xmlns="http://www.w3.org/2000/svg">
<g clip-path="url(#clip0)">
<path d="M44.8268 3.13259C31.0914 0.254306 16.9085 0.254306 3.17312 3.13259C2.55245 3.26402 1.99558 3.60422 1.59534 4.09647C1.1951 4.58873 0.975679 5.20329 0.973645 5.83772V15.1182C0.967658 22.0978 3.16112 28.9017 7.24245 34.5635C11.3238 40.2254 17.0854 44.4572 23.7089 46.6579C23.8977 46.7214 24.1022 46.7214 24.291 46.6579C30.9145 44.4572 36.6761 40.2254 40.7575 34.5635C44.8388 28.9017 47.0323 22.0978 47.0263 15.1182V5.83772C47.0244 5.20325 46.805 4.5886 46.4048 4.09631C46.0045 3.60402 45.4475 3.26386 44.8268 3.13259ZM45.1842 15.1182C45.1904 21.6591 43.1516 28.0383 39.3532 33.3633C35.5547 38.6882 30.1866 42.6924 24 44.8157C17.8133 42.6924 12.4452 38.6882 8.64676 33.3633C4.8483 28.0383 2.80955 21.6591 2.81575 15.1182V5.83772C2.81549 5.62523 2.88872 5.41919 3.02301 5.25452C3.1573 5.08984 3.3444 4.97667 3.55259 4.93417C17.0377 2.10835 30.9622 2.10835 44.4473 4.93417C44.6552 4.9766 44.8421 5.08951 44.9763 5.2538C45.1106 5.4181 45.184 5.62371 45.1842 5.83588V15.1182Z" fill="#BFCBD7"/>
<path d="M41.6661 7.20545C29.9856 5.064 18.0132 5.064 6.33269 7.20545C6.1208 7.24445 5.92929 7.35648 5.79147 7.52207C5.65365 7.68766 5.57823 7.89633 5.57834 8.11177V15.1182C5.55581 20.8621 7.27059 26.4786 10.4976 31.2303C13.7246 35.9821 18.313 39.647 23.6604 41.744C23.8782 41.8302 24.1206 41.8302 24.3383 41.744C29.6858 39.647 34.2742 35.9821 37.5012 31.2303C40.7282 26.4786 42.443 20.8621 42.4204 15.1182V8.11177C42.4206 7.89633 42.3451 7.68766 42.2073 7.52207C42.0695 7.35648 41.878 7.24445 41.6661 7.20545ZM40.5783 15.1182C40.599 20.4301 39.0318 25.6269 36.0777 30.0416C33.1236 34.4563 28.9175 37.8875 23.9994 39.8945C19.0813 37.8875 14.8752 34.4563 11.9211 30.0416C8.96703 25.6269 7.39975 20.4301 7.42045 15.1182V8.88177C18.3896 6.96046 29.6092 6.96046 40.5783 8.88177V15.1182Z" fill="#BFCBD7"/>
<path d="M20.2569 17.8142C20.022 17.5508 19.7364 17.3374 19.4171 17.187C19.0978 17.0366 18.7514 16.9521 18.3988 16.9387C18.0461 16.9252 17.6943 16.9831 17.3645 17.1088C17.0347 17.2346 16.7337 17.4256 16.4794 17.6704C16.2252 17.9152 16.023 18.2088 15.8849 18.5336C15.7468 18.8584 15.6757 19.2077 15.6758 19.5607C15.6759 19.9136 15.7472 20.2629 15.8855 20.5877C16.0238 20.9124 16.2262 21.2059 16.4806 21.4505L20.2725 25.2434C20.773 25.744 21.4466 26.0334 22.1542 26.0519C22.8618 26.0704 23.5496 25.8166 24.0756 25.3429L31.3832 18.7657C31.7259 18.4582 31.9855 18.0694 32.1383 17.6351C32.291 17.2008 32.3319 16.7351 32.2571 16.2808C32.1823 15.8265 31.9942 15.3985 31.7103 15.0361C31.4263 14.6737 31.0557 14.3887 30.6325 14.2074C30.1408 13.9911 29.5958 13.9259 29.0669 14.0201C28.538 14.1142 28.0491 14.3634 27.6621 14.7361L22.2021 19.9115L20.2569 17.8142ZM28.9267 16.0734C29.0537 15.9509 29.2142 15.8689 29.3879 15.8379C29.5616 15.8069 29.7406 15.8283 29.9021 15.8994C30.0414 15.9586 30.1634 16.0521 30.2568 16.1711C30.3503 16.2901 30.4121 16.4308 30.4367 16.5801C30.4612 16.7294 30.4476 16.8825 30.3971 17.0251C30.3467 17.1678 30.261 17.2954 30.148 17.3961L22.8404 23.9733C22.6651 24.1314 22.4357 24.2161 22.1997 24.2099C21.9636 24.2037 21.739 24.1072 21.5721 23.9401L17.7811 20.1491C17.6885 20.0577 17.6203 19.9446 17.5827 19.82C17.5451 19.6955 17.5393 19.5635 17.5659 19.4362C17.5925 19.3089 17.6505 19.1902 17.7348 19.0911C17.819 18.992 17.9268 18.9156 18.0482 18.8688C18.1937 18.8086 18.3544 18.7952 18.508 18.8305C18.6615 18.8659 18.8002 18.9481 18.9048 19.0659L21.4837 21.8475C21.5665 21.937 21.6662 22.0092 21.777 22.0599C21.8879 22.1105 22.0077 22.1387 22.1295 22.1427C22.2514 22.1468 22.3728 22.1266 22.4867 22.0833C22.6007 22.0401 22.705 21.9746 22.7934 21.8908L28.9267 16.0734Z" fill="#BFCBD7"/>
</g>
<defs>
<clipPath id="clip0">
<rect width="46.4211" height="46.4211" fill="white" transform="translate(0.789062 0.789429)"/>
</clipPath>
</defs>
</svg>