<svg width="48" height="48" viewBox="0 0 48 48" fill="none" xmlns="http://www.w3.org/2000/svg">
<g clip-path="url(#clip0)">
<path d="M44.2631 0.973633H3.73679C3.00396 0.973633 2.30114 1.26475 1.78294 1.78294C1.26475 2.30114 0.973633 3.00396 0.973633 3.73679V44.2631C0.973633 44.9959 1.26475 45.6988 1.78294 46.217C2.30114 46.7351 3.00396 47.0263 3.73679 47.0263H44.2631C44.9959 47.0263 45.6988 46.7351 46.217 46.217C46.7351 45.6988 47.0263 44.9959 47.0263 44.2631V3.73679C47.0263 3.00396 46.7351 2.30114 46.217 1.78294C45.6988 1.26475 44.9959 0.973633 44.2631 0.973633ZM3.73679 2.81574H44.2631C44.5074 2.81574 44.7417 2.91278 44.9144 3.08551C45.0871 3.25824 45.1842 3.49251 45.1842 3.73679V8.41113L2.81574 8.34205V3.73679C2.81574 3.49251 2.91278 3.25824 3.08551 3.08551C3.25824 2.91278 3.49251 2.81574 3.73679 2.81574ZM44.2631 45.1842H3.73679C3.49251 45.1842 3.25824 45.0871 3.08551 44.9144C2.91278 44.7417 2.81574 44.5074 2.81574 44.2631V10.1842L45.1842 10.2514V44.2631C45.1842 44.5074 45.0871 44.7417 44.9144 44.9144C44.7417 45.0871 44.5074 45.1842 44.2631 45.1842Z" fill="#BFCBD7"/>
<path d="M12.0826 27.0882L16.9642 31.1556C17.067 31.2406 17.1871 31.3023 17.3161 31.3363C17.4451 31.3704 17.58 31.376 17.7114 31.3528C17.8428 31.3296 17.9675 31.2781 18.0771 31.2019C18.1866 31.1257 18.2783 31.0266 18.3458 30.9115L23.9826 21.2478L31.4864 34.5828C31.5638 34.7194 31.6748 34.834 31.8089 34.9156C31.943 34.9972 32.0957 35.0432 32.2526 35.0492C32.4095 35.0552 32.5653 35.021 32.7052 34.9499C32.8452 34.8787 32.9646 34.773 33.0522 34.6427L36.4656 29.5262H41.4992C41.7435 29.5262 41.9777 29.4292 42.1505 29.2565C42.3232 29.0837 42.4202 28.8495 42.4202 28.6052C42.4202 28.3609 42.3232 28.1266 42.1505 27.9539C41.9777 27.7812 41.7435 27.6841 41.4992 27.6841H35.9729C35.8213 27.6841 35.672 27.7215 35.5383 27.793C35.4046 27.8645 35.2907 27.9679 35.2065 28.094L32.3513 32.3714L24.7987 18.9433C24.7191 18.802 24.6037 18.6842 24.4641 18.6018C24.3244 18.5194 24.1655 18.4753 24.0034 18.474C23.8412 18.4727 23.6816 18.5142 23.5407 18.5943C23.3997 18.6745 23.2824 18.7904 23.2006 18.9304L17.3059 29.0427L12.6177 25.1337C12.441 24.9865 12.2156 24.9107 11.9859 24.9213C11.7561 24.9319 11.5386 25.028 11.3762 25.1908L7.42023 29.1449V16.6315C7.42023 16.3872 7.32319 16.1529 7.15046 15.9802C6.97773 15.8075 6.74346 15.7104 6.49918 15.7104C6.2549 15.7104 6.02063 15.8075 5.8479 15.9802C5.67516 16.1529 5.57812 16.3872 5.57812 16.6315V38.7368C5.57812 38.981 5.67516 39.2153 5.8479 39.388C6.02063 39.5608 6.2549 39.6578 6.49918 39.6578H41.4992C41.7435 39.6578 41.9777 39.5608 42.1505 39.388C42.3232 39.2153 42.4202 38.981 42.4202 38.7368C42.4202 38.4925 42.3232 38.2582 42.1505 38.0855C41.9777 37.9128 41.7435 37.8157 41.4992 37.8157H7.42023V31.7497L12.0826 27.0882Z" fill="#BFCBD7"/>
</g>
<defs>
<clipPath id="clip0">
<rect width="46.4211" height="46.4211" fill="white" transform="translate(0.789062 0.789429)"/>
</clipPath>
</defs>
</svg>