<svg width="48" height="40" viewBox="0 0 48 40" fill="none" xmlns="http://www.w3.org/2000/svg">
<g clip-path="url(#clip0)">
<path d="M44.2631 0.657837H3.73679C3.00396 0.657837 2.30114 0.948954 1.78294 1.46715C1.26475 1.98534 0.973633 2.68816 0.973633 3.42099V36.5789C0.973633 37.3117 1.26475 38.0145 1.78294 38.5327C2.30114 39.0509 3.00396 39.342 3.73679 39.342H44.2631C44.9959 39.342 45.6988 39.0509 46.217 38.5327C46.7351 38.0145 47.0263 37.3117 47.0263 36.5789V3.42099C47.0263 2.68816 46.7351 1.98534 46.217 1.46715C45.6988 0.948954 44.9959 0.657837 44.2631 0.657837ZM3.73679 2.49994H44.2631C44.5074 2.49994 44.7417 2.59698 44.9144 2.76971C45.0871 2.94244 45.1842 3.17672 45.1842 3.42099V8.02626H2.81574V3.42099C2.81574 3.17672 2.91278 2.94244 3.08551 2.76971C3.25824 2.59698 3.49251 2.49994 3.73679 2.49994ZM44.2631 37.4999H3.73679C3.49251 37.4999 3.25824 37.4029 3.08551 37.2302C2.91278 37.0574 2.81574 36.8232 2.81574 36.5789V9.86836H45.1842V36.5789C45.1842 36.8232 45.0871 37.0574 44.9144 37.2302C44.7417 37.4029 44.5074 37.4999 44.2631 37.4999Z" fill="#BFCBD7"/>
<path d="M17.346 24.9387C17.1856 25.1289 16.9837 25.2799 16.7559 25.38C16.528 25.4801 16.2803 25.5267 16.0317 25.5162C15.728 25.5223 15.4262 25.4677 15.1439 25.3557C14.8616 25.2437 14.6045 25.0766 14.3876 24.864C14.1707 24.6514 13.9984 24.3977 13.8807 24.1177C13.7631 23.8377 13.7025 23.537 13.7025 23.2333C13.7025 22.9296 13.7631 22.629 13.8807 22.349C13.9984 22.069 14.1707 21.8152 14.3876 21.6027C14.6045 21.3901 14.8616 21.2229 15.1439 21.1109C15.4262 20.9989 15.728 20.9444 16.0317 20.9505C16.4858 20.9494 16.9297 21.0852 17.3055 21.3401C17.5077 21.4705 17.7529 21.5167 17.9887 21.4686C18.2245 21.4206 18.4321 21.2821 18.5671 21.083C18.7021 20.8838 18.7539 20.6397 18.7112 20.4028C18.6686 20.166 18.5349 19.9553 18.3389 19.8158C17.8041 19.4549 17.1921 19.2246 16.5521 19.1432C15.9121 19.0618 15.2619 19.1317 14.6538 19.3471C14.0457 19.5626 13.4966 19.9177 13.0506 20.3839C12.6046 20.8501 12.2742 21.4144 12.0859 22.0315C11.8976 22.6485 11.8566 23.3012 11.9663 23.9369C12.076 24.5727 12.3332 25.1739 12.7174 25.6922C13.1016 26.2105 13.602 26.6315 14.1784 26.9213C14.7548 27.2111 15.3911 27.3617 16.0363 27.361C16.5517 27.3699 17.0627 27.2638 17.5321 27.0505C18.0015 26.8372 18.4174 26.5219 18.7497 26.1277C18.9074 25.9411 18.9844 25.6995 18.964 25.456C18.9435 25.2126 18.8272 24.9872 18.6405 24.8295C18.4539 24.6718 18.2123 24.5947 17.9688 24.6152C17.7254 24.6357 17.5 24.752 17.3423 24.9387H17.346Z" fill="#BFCBD7"/>
<path d="M24.6488 19.1083C23.8329 19.1083 23.0353 19.3502 22.3569 19.8035C21.6785 20.2568 21.1497 20.9011 20.8375 21.655C20.5252 22.4088 20.4435 23.2382 20.6027 24.0385C20.7619 24.8387 21.1548 25.5738 21.7317 26.1508C22.3087 26.7277 23.0438 27.1206 23.844 27.2798C24.6443 27.439 25.4737 27.3573 26.2276 27.045C26.9814 26.7328 27.6257 26.204 28.079 25.5256C28.5323 24.8472 28.7742 24.0496 28.7742 23.2337C28.773 22.1399 28.338 21.0913 27.5646 20.3179C26.7912 19.5445 25.7426 19.1095 24.6488 19.1083ZM24.6488 25.516C24.1972 25.516 23.7557 25.3821 23.3802 25.1312C23.0047 24.8802 22.7121 24.5236 22.5393 24.1063C22.3665 23.689 22.3213 23.2299 22.4095 22.787C22.4977 22.344 22.7152 21.9372 23.0346 21.6179C23.354 21.2986 23.761 21.0812 24.204 20.9932C24.6469 20.9052 25.106 20.9506 25.5232 21.1235C25.9404 21.2965 26.297 21.5893 26.5478 21.9649C26.7985 22.3405 26.9323 22.782 26.9321 23.2337C26.9314 23.8389 26.6906 24.4192 26.2625 24.8471C25.8344 25.275 25.2541 25.5156 24.6488 25.516Z" fill="#BFCBD7"/>
<path d="M37.9148 19.2244C37.1321 19.2038 36.3732 19.4947 35.8047 20.0331C35.5496 19.7524 35.2358 19.5315 34.8855 19.3859C34.5353 19.2404 34.1573 19.174 33.7784 19.1913C33.2546 19.1926 32.7407 19.3331 32.289 19.5984C32.1973 19.4129 32.0454 19.2641 31.8581 19.1761C31.6709 19.0882 31.4593 19.0663 31.258 19.1141C31.0568 19.1619 30.8776 19.2765 30.7499 19.4392C30.6221 19.602 30.5533 19.8032 30.5547 20.0101V26.4575C30.5547 26.7017 30.6517 26.936 30.8245 27.1087C30.9972 27.2815 31.2315 27.3785 31.4758 27.3785C31.72 27.3785 31.9543 27.2815 32.127 27.1087C32.2998 26.936 32.3968 26.7017 32.3968 26.4575V23.1232C32.3968 22.1589 32.7652 21.0334 33.7858 21.0334C34.2177 21.0334 34.7547 21.0334 34.8063 22.8175C34.8118 22.9602 34.8063 26.3644 34.8063 26.4575C34.8063 26.7017 34.9033 26.936 35.0761 27.1087C35.2488 27.2815 35.4831 27.3785 35.7273 27.3785C35.9716 27.3785 36.2059 27.2815 36.3786 27.1087C36.5514 26.936 36.6484 26.7017 36.6484 26.4575C36.6484 26.3654 36.6484 22.438 36.6484 22.6885C36.6484 21.6118 37.0739 21.0665 37.913 21.0665C38.8562 21.0665 39.0698 21.5381 38.9971 23.1794V26.4575C38.9971 26.7017 39.0941 26.936 39.2668 27.1087C39.4396 27.2815 39.6739 27.3785 39.9181 27.3785C40.1624 27.3785 40.3967 27.2815 40.5694 27.1087C40.7421 26.936 40.8392 26.7017 40.8392 26.4575V23.2236C40.9469 20.9293 40.2267 19.2244 37.9148 19.2244Z" fill="#BFCBD7"/>
<path d="M9.45189 27.3582C10.2149 27.3582 10.8335 26.7397 10.8335 25.9767C10.8335 25.2136 10.2149 24.5951 9.45189 24.5951C8.68887 24.5951 8.07031 25.2136 8.07031 25.9767C8.07031 26.7397 8.68887 27.3582 9.45189 27.3582Z" fill="#BFCBD7"/>
</g>
<defs>
<clipPath id="clip0">
<rect width="46.4211" height="39.0526" fill="white" transform="translate(0.789062 0.473633)"/>
</clipPath>
</defs>
</svg>