<svg width="48" height="48" viewBox="0 0 48 48" fill="none" xmlns="http://www.w3.org/2000/svg">
<g clip-path="url(#clip0)">
<path d="M44.7231 0.973633H4.19675C3.46392 0.973633 2.7611 1.26475 2.2429 1.78294C1.72471 2.30114 1.43359 3.00396 1.43359 3.73679V44.2631C1.43359 44.9959 1.72471 45.6988 2.2429 46.217C2.7611 46.7351 3.46392 47.0263 4.19675 47.0263H44.7231C45.4559 47.0263 46.1587 46.7351 46.6769 46.217C47.1951 45.6988 47.4862 44.9959 47.4862 44.2631V3.73679C47.4862 3.00396 47.1951 2.30114 46.6769 1.78294C46.1587 1.26475 45.4559 0.973633 44.7231 0.973633ZM4.19675 2.81574H44.7231C44.9673 2.81574 45.2016 2.91278 45.3744 3.08551C45.5471 3.25824 45.6441 3.49251 45.6441 3.73679V8.41113L3.2757 8.34205V3.73679C3.2757 3.49251 3.37274 3.25824 3.54547 3.08551C3.7182 2.91278 3.95247 2.81574 4.19675 2.81574ZM44.7231 45.1842H4.19675C3.95247 45.1842 3.7182 45.0871 3.54547 44.9144C3.37274 44.7417 3.2757 44.5074 3.2757 44.2631V10.1842L45.6441 10.2514V44.2631C45.6441 44.5074 45.5471 44.7417 45.3744 44.9144C45.2016 45.0871 44.9673 45.1842 44.7231 45.1842Z" fill="#BFCBD7"/>
<path d="M6.03922 6.49994H7.88132C8.1256 6.49994 8.35987 6.4029 8.5326 6.23017C8.70533 6.05744 8.80237 5.82317 8.80237 5.57889C8.80237 5.33461 8.70533 5.10034 8.5326 4.92761C8.35987 4.75488 8.1256 4.65784 7.88132 4.65784H6.03922C5.79494 4.65784 5.56067 4.75488 5.38793 4.92761C5.2152 5.10034 5.11816 5.33461 5.11816 5.57889C5.11816 5.82317 5.2152 6.05744 5.38793 6.23017C5.56067 6.4029 5.79494 6.49994 6.03922 6.49994Z" fill="#BFCBD7"/>
<path d="M12.4865 6.49994H14.3286C14.5729 6.49994 14.8071 6.4029 14.9799 6.23017C15.1526 6.05744 15.2496 5.82317 15.2496 5.57889C15.2496 5.33461 15.1526 5.10034 14.9799 4.92761C14.8071 4.75488 14.5729 4.65784 14.3286 4.65784H12.4865C12.2422 4.65784 12.0079 4.75488 11.8352 4.92761C11.6625 5.10034 11.5654 5.33461 11.5654 5.57889C11.5654 5.82317 11.6625 6.05744 11.8352 6.23017C12.0079 6.4029 12.2422 6.49994 12.4865 6.49994Z" fill="#BFCBD7"/>
<path d="M18.9337 6.49994H20.7759C21.0201 6.49994 21.2544 6.4029 21.4271 6.23017C21.5999 6.05744 21.6969 5.82317 21.6969 5.57889C21.6969 5.33461 21.5999 5.10034 21.4271 4.92761C21.2544 4.75488 21.0201 4.65784 20.7759 4.65784H18.9337C18.6895 4.65784 18.4552 4.75488 18.2825 4.92761C18.1097 5.10034 18.0127 5.33461 18.0127 5.57889C18.0127 5.82317 18.1097 6.05744 18.2825 6.23017C18.4552 6.4029 18.6895 6.49994 18.9337 6.49994Z" fill="#BFCBD7"/>
<path d="M40.4681 22.1578C40.4694 20.6121 40.1171 19.0866 39.4381 17.6981C38.7591 16.3095 37.7714 15.0948 36.5506 14.1468C35.3298 13.1988 33.9082 12.5426 32.3948 12.2286C30.8814 11.9146 29.3161 11.951 27.819 12.3351C26.3218 12.7192 24.9323 13.4407 23.7569 14.4445C22.5815 15.4483 21.6514 16.7077 21.0377 18.1263C20.424 19.5449 20.1431 21.0851 20.2163 22.629C20.2895 24.173 20.7151 25.6797 21.4603 27.0338L9.61281 37.8506C9.25808 38.1753 8.97278 38.5684 8.77412 39.0064C8.57546 39.4443 8.46756 39.9179 8.45693 40.3986C8.44629 40.8794 8.53314 41.3573 8.71223 41.8036C8.89133 42.2499 9.15896 42.6552 9.49899 42.9953C9.83901 43.3353 10.2444 43.6029 10.6907 43.782C11.1369 43.9611 11.6149 44.048 12.0956 44.0373C12.5764 44.0267 13.05 43.9188 13.4879 43.7201C13.9258 43.5215 14.3189 43.2362 14.6436 42.8814L25.4604 31.0339C27.0025 31.8831 28.7394 32.3154 30.4996 32.2884C32.2598 32.2613 33.9826 31.7757 35.4978 30.8795C37.013 29.9833 38.2684 28.7075 39.14 27.178C40.0117 25.6485 40.4694 23.9182 40.4681 22.1578ZM30.3365 13.8683C31.976 13.8683 33.5787 14.3544 34.9419 15.2653C36.3051 16.1762 37.3676 17.4708 37.995 18.9855C38.6224 20.5002 38.7865 22.1669 38.4667 23.7749C38.1468 25.3829 37.3573 26.86 36.198 28.0193C35.0387 29.1786 33.5617 29.9681 31.9537 30.2879C30.3457 30.6078 28.6789 30.4436 27.1642 29.8162C25.6495 29.1888 24.3549 28.1263 23.444 26.7631C22.5332 25.3999 22.047 23.7973 22.047 22.1578C22.0495 19.96 22.9236 17.853 24.4776 16.2989C26.0317 14.7449 28.1387 13.8707 30.3365 13.8683ZM13.2832 41.6399C11.676 43.3972 9.12465 40.7934 10.8544 39.211L19.7389 31.0984L21.3968 32.7563L13.2832 41.6399ZM22.6393 31.3931L21.1002 29.855L22.5029 28.5747C22.9277 29.0921 23.4022 29.5665 23.9195 29.9913L22.6393 31.3931Z" fill="#BFCBD7"/>
<path d="M30.336 28.6052C31.6112 28.6052 32.8577 28.2271 33.918 27.5186C34.9783 26.8102 35.8046 25.8032 36.2926 24.6251C36.7806 23.447 36.9083 22.1507 36.6595 20.9C36.4108 19.6493 35.7967 18.5005 34.895 17.5988C33.9933 16.6972 32.8445 16.0831 31.5939 15.8343C30.3432 15.5856 29.0468 15.7132 27.8687 16.2012C26.6906 16.6892 25.6837 17.5156 24.9753 18.5759C24.2668 19.6361 23.8887 20.8827 23.8887 22.1578C23.8909 23.8671 24.5708 25.5057 25.7795 26.7144C26.9881 27.923 28.6268 28.603 30.336 28.6052ZM30.336 17.5526C31.2469 17.5526 32.1373 17.8227 32.8946 18.3287C33.6519 18.8347 34.2422 19.554 34.5908 20.3955C34.9393 21.237 35.0305 22.1629 34.8528 23.0563C34.6751 23.9496 34.2365 24.7702 33.5925 25.4142C32.9484 26.0583 32.1278 26.4969 31.2345 26.6746C30.3412 26.8523 29.4152 26.7611 28.5737 26.4125C27.7322 26.064 27.0129 25.4737 26.5069 24.7164C26.0009 23.959 25.7308 23.0687 25.7308 22.1578C25.7322 20.9369 26.2179 19.7664 27.0812 18.903C27.9446 18.0397 29.1151 17.554 30.336 17.5526Z" fill="#BFCBD7"/>
<path d="M6.96012 19.3947H17.0917C17.336 19.3947 17.5702 19.2977 17.743 19.1249C17.9157 18.9522 18.0127 18.7179 18.0127 18.4737C18.0127 18.2294 17.9157 17.9951 17.743 17.8224C17.5702 17.6497 17.336 17.5526 17.0917 17.5526H6.96012C6.71584 17.5526 6.48156 17.6497 6.30883 17.8224C6.1361 17.9951 6.03906 18.2294 6.03906 18.4737C6.03906 18.7179 6.1361 18.9522 6.30883 19.1249C6.48156 19.2977 6.71584 19.3947 6.96012 19.3947Z" fill="#BFCBD7"/>
<path d="M6.96012 23.9999H17.0917C17.336 23.9999 17.5702 23.9029 17.743 23.7302C17.9157 23.5574 18.0127 23.3232 18.0127 23.0789C18.0127 22.8346 17.9157 22.6003 17.743 22.4276C17.5702 22.2549 17.336 22.1578 17.0917 22.1578H6.96012C6.71584 22.1578 6.48156 22.2549 6.30883 22.4276C6.1361 22.6003 6.03906 22.8346 6.03906 23.0789C6.03906 23.3232 6.1361 23.5574 6.30883 23.7302C6.48156 23.9029 6.71584 23.9999 6.96012 23.9999Z" fill="#BFCBD7"/>
<path d="M13.4075 27.6841C13.4075 27.4398 13.3104 27.2056 13.1377 27.0328C12.965 26.8601 12.7307 26.7631 12.4864 26.7631H6.96012C6.71584 26.7631 6.48156 26.8601 6.30883 27.0328C6.1361 27.2056 6.03906 27.4398 6.03906 27.6841C6.03906 27.9284 6.1361 28.1627 6.30883 28.3354C6.48156 28.5081 6.71584 28.6052 6.96012 28.6052H12.4864C12.7307 28.6052 12.965 28.5081 13.1377 28.3354C13.3104 28.1627 13.4075 27.9284 13.4075 27.6841Z" fill="#BFCBD7"/>
<path d="M41.9599 35.9736H31.8283C31.584 35.9736 31.3497 36.0707 31.177 36.2434C31.0043 36.4161 30.9072 36.6504 30.9072 36.8947C30.9072 37.139 31.0043 37.3732 31.177 37.546C31.3497 37.7187 31.584 37.8157 31.8283 37.8157H41.9599C42.2041 37.8157 42.4384 37.7187 42.6111 37.546C42.7839 37.3732 42.8809 37.139 42.8809 36.8947C42.8809 36.6504 42.7839 36.4161 42.6111 36.2434C42.4384 36.0707 42.2041 35.9736 41.9599 35.9736Z" fill="#BFCBD7"/>
<path d="M41.9598 31.3684H38.2755C38.0313 31.3684 37.797 31.4654 37.6243 31.6382C37.4515 31.8109 37.3545 32.0452 37.3545 32.2895C37.3545 32.5337 37.4515 32.768 37.6243 32.9407C37.797 33.1135 38.0313 33.2105 38.2755 33.2105H41.9598C42.204 33.2105 42.4383 33.1135 42.611 32.9407C42.7838 32.768 42.8808 32.5337 42.8808 32.2895C42.8808 32.0452 42.7838 31.8109 42.611 31.6382C42.4383 31.4654 42.204 31.3684 41.9598 31.3684Z" fill="#BFCBD7"/>
</g>
<defs>
<clipPath id="clip0">
<rect width="47.1579" height="46.4211" fill="white" transform="translate(0.789062 0.789429)"/>
</clipPath>
</defs>
</svg>