<svg width="20" height="24" viewBox="0 0 20 24" fill="none" xmlns="http://www.w3.org/2000/svg">
<path d="M19.2961 8.6858C19.1797 8.44064 18.9325 8.28427 18.661 8.28427H11.6088L15.8773 1.06083C16.0057 0.843469 16.0077 0.573844 15.8826 0.354609C15.7574 0.135375 15.5244 -9.37014e-05 15.2719 4.86277e-08L9.24682 0.000656299C8.99679 0.000750049 8.76556 0.1335 8.6396 0.349453L0.731791 13.905C0.6049 14.1224 0.60401 14.3911 0.729401 14.6094C0.854791 14.8277 1.08734 14.9624 1.3391 14.9624H8.34635L6.30542 23.1263C6.22554 23.4457 6.37812 23.7779 6.67249 23.9255C6.7729 23.9757 6.88057 24 6.98721 24C7.19327 24 7.39521 23.9094 7.53237 23.7413L19.2058 9.43186C19.3774 9.22148 19.4126 8.93105 19.2961 8.6858Z" fill="white"/>
</svg>
