<svg width="16" height="16" viewBox="0 0 16 16" fill="none" xmlns="http://www.w3.org/2000/svg">
<path d="M12.6667 3.33325H12V1.99992C12 1.82311 11.9298 1.65354 11.8048 1.52851C11.6798 1.40349 11.5102 1.33325 11.3334 1.33325C11.1566 1.33325 10.987 1.40349 10.862 1.52851C10.7369 1.65354 10.6667 1.82311 10.6667 1.99992V3.33325H5.33337V1.99992C5.33337 1.82311 5.26314 1.65354 5.13811 1.52851C5.01309 1.40349 4.84352 1.33325 4.66671 1.33325C4.4899 1.33325 4.32033 1.40349 4.1953 1.52851C4.07028 1.65354 4.00004 1.82311 4.00004 1.99992V3.33325H3.33337C2.80294 3.33325 2.29423 3.54397 1.91916 3.91904C1.54409 4.29411 1.33337 4.80282 1.33337 5.33325V5.99992H14.6667V5.33325C14.6667 4.80282 14.456 4.29411 14.0809 3.91904C13.7058 3.54397 13.1971 3.33325 12.6667 3.33325Z" fill="#717579"/>
<path d="M1.33337 12.6666C1.33337 13.197 1.54409 13.7057 1.91916 14.0808C2.29423 14.4559 2.80294 14.6666 3.33337 14.6666H12.6667C13.1971 14.6666 13.7058 14.4559 14.0809 14.0808C14.456 13.7057 14.6667 13.197 14.6667 12.6666V7.33325H1.33337V12.6666Z" fill="#717579"/>
</svg>
