<svg width="24" height="24" viewBox="0 0 24 24" fill="none" xmlns="http://www.w3.org/2000/svg">
<path d="M7.99976 1H3.99976C2.3429 1 0.999756 2.34315 0.999756 4V8C0.999756 9.65685 2.3429 11 3.99976 11H7.99976C9.65661 11 10.9998 9.65685 10.9998 8V4C10.9998 2.34315 9.65661 1 7.99976 1Z" fill="#D7D7D7"/>
<path d="M19.9998 1H15.9998C14.3429 1 12.9998 2.34315 12.9998 4V8C12.9998 9.65685 14.3429 11 15.9998 11H19.9998C21.6566 11 22.9998 9.65685 22.9998 8V4C22.9998 2.34315 21.6566 1 19.9998 1Z" fill="#D7D7D7"/>
<path d="M7.99976 13H3.99976C2.3429 13 0.999756 14.3431 0.999756 16V20C0.999756 21.6569 2.3429 23 3.99976 23H7.99976C9.65661 23 10.9998 21.6569 10.9998 20V16C10.9998 14.3431 9.65661 13 7.99976 13Z" fill="#D7D7D7"/>
<path d="M19.9998 13H15.9998C14.3429 13 12.9998 14.3431 12.9998 16V20C12.9998 21.6569 14.3429 23 15.9998 23H19.9998C21.6566 23 22.9998 21.6569 22.9998 20V16C22.9998 14.3431 21.6566 13 19.9998 13Z" fill="#D7D7D7"/>
</svg>
