<svg width="24" height="24" viewBox="0 0 24 24" fill="none" xmlns="http://www.w3.org/2000/svg">
<path d="M3.99976 7H19.9998C20.7954 7 21.5585 6.68393 22.1211 6.12132C22.6837 5.55871 22.9998 4.79565 22.9998 4C22.9998 3.20435 22.6837 2.44129 22.1211 1.87868C21.5585 1.31607 20.7954 1 19.9998 1H3.99976C3.20411 1 2.44104 1.31607 1.87844 1.87868C1.31583 2.44129 0.999756 3.20435 0.999756 4C0.999756 4.79565 1.31583 5.55871 1.87844 6.12132C2.44104 6.68393 3.20411 7 3.99976 7Z" fill="#1D3573"/>
<path d="M19.9998 9H3.99976C3.20411 9 2.44104 9.31607 1.87844 9.87868C1.31583 10.4413 0.999756 11.2044 0.999756 12C0.999756 12.7956 1.31583 13.5587 1.87844 14.1213C2.44104 14.6839 3.20411 15 3.99976 15H19.9998C20.7954 15 21.5585 14.6839 22.1211 14.1213C22.6837 13.5587 22.9998 12.7956 22.9998 12C22.9998 11.2044 22.6837 10.4413 22.1211 9.87868C21.5585 9.31607 20.7954 9 19.9998 9Z" fill="#1D3573"/>
<path d="M19.9998 17H3.99976C3.20411 17 2.44104 17.3161 1.87844 17.8787C1.31583 18.4413 0.999756 19.2044 0.999756 20C0.999756 20.7956 1.31583 21.5587 1.87844 22.1213C2.44104 22.6839 3.20411 23 3.99976 23H19.9998C20.7954 23 21.5585 22.6839 22.1211 22.1213C22.6837 21.5587 22.9998 20.7956 22.9998 20C22.9998 19.2044 22.6837 18.4413 22.1211 17.8787C21.5585 17.3161 20.7954 17 19.9998 17Z" fill="#1D3573"/>
</svg>
